<?xml version="1.0" encoding="UTF-8" standalone="no"?>
<!-- Created with Inkscape (http://www.inkscape.org/) -->

<svg
   width="77"
   height="26"
   viewBox="0 0 20.372918 6.8791668"
   version="1.1"
   id="svg908"
   inkscape:version="1.4 (e7c3feb100, 2024-10-09)"
   sodipodi:docname="logo-text-version.svg"
   xmlns:inkscape="http://www.inkscape.org/namespaces/inkscape"
   xmlns:sodipodi="http://sodipodi.sourceforge.net/DTD/sodipodi-0.dtd"
   xmlns:xlink="http://www.w3.org/1999/xlink"
   xmlns="http://www.w3.org/2000/svg"
   xmlns:svg="http://www.w3.org/2000/svg">
  <sodipodi:namedview
     id="namedview910"
     pagecolor="#ffffff"
     bordercolor="#666666"
     borderopacity="1.0"
     inkscape:showpageshadow="2"
     inkscape:pageopacity="0.0"
     inkscape:pagecheckerboard="0"
     inkscape:deskcolor="#d1d1d1"
     inkscape:document-units="mm"
     showgrid="false"
     inkscape:zoom="11.313708"
     inkscape:cx="46.713244"
     inkscape:cy="-0.83968934"
     inkscape:window-width="1865"
     inkscape:window-height="1223"
     inkscape:window-x="0"
     inkscape:window-y="0"
     inkscape:window-maximized="0"
     inkscape:current-layer="layer1" />
  <defs
     id="defs905">
    <rect
       id="SVGID_00000105414853600283290720000017360153226701225652_"
       y="0"
       width="640"
       height="483.70001"
       x="0" />
    <clipPath
       clipPathUnits="userSpaceOnUse"
       id="clipPath1">
      <use
         xlink:href="#SVGID_00000105414853600283290720000017360153226701225652_"
         style="overflow:visible"
         id="use1" />
    </clipPath>
    <clipPath
       clipPathUnits="userSpaceOnUse"
       id="clipPath2">
      <use
         xlink:href="#SVGID_00000105414853600283290720000017360153226701225652_"
         style="overflow:visible"
         id="use2" />
    </clipPath>
    <clipPath
       clipPathUnits="userSpaceOnUse"
       id="clipPath3">
      <use
         xlink:href="#SVGID_00000105414853600283290720000017360153226701225652_"
         style="overflow:visible"
         id="use3" />
    </clipPath>
    <clipPath
       clipPathUnits="userSpaceOnUse"
       id="clipPath4">
      <use
         xlink:href="#SVGID_00000105414853600283290720000017360153226701225652_"
         style="overflow:visible"
         id="use4" />
    </clipPath>
    <clipPath
       clipPathUnits="userSpaceOnUse"
       id="clipPath5">
      <use
         xlink:href="#SVGID_00000105414853600283290720000017360153226701225652_"
         style="overflow:visible"
         id="use5" />
    </clipPath>
    <clipPath
       clipPathUnits="userSpaceOnUse"
       id="clipPath6">
      <use
         xlink:href="#SVGID_00000105414853600283290720000017360153226701225652_"
         style="overflow:visible"
         id="use6" />
    </clipPath>
    <clipPath
       clipPathUnits="userSpaceOnUse"
       id="clipPath7">
      <use
         xlink:href="#SVGID_00000105414853600283290720000017360153226701225652_"
         style="overflow:visible"
         id="use7" />
    </clipPath>
    <clipPath
       clipPathUnits="userSpaceOnUse"
       id="clipPath8">
      <use
         xlink:href="#SVGID_00000105414853600283290720000017360153226701225652_"
         style="overflow:visible"
         id="use8" />
    </clipPath>
    <clipPath
       clipPathUnits="userSpaceOnUse"
       id="clipPath9">
      <use
         xlink:href="#SVGID_00000105414853600283290720000017360153226701225652_"
         style="overflow:visible"
         id="use9" />
    </clipPath>
    <clipPath
       clipPathUnits="userSpaceOnUse"
       id="clipPath10">
      <use
         xlink:href="#SVGID_00000105414853600283290720000017360153226701225652_"
         style="overflow:visible"
         id="use10" />
    </clipPath>
    <clipPath
       clipPathUnits="userSpaceOnUse"
       id="clipPath11">
      <use
         xlink:href="#SVGID_00000105414853600283290720000017360153226701225652_"
         style="overflow:visible"
         id="use11" />
    </clipPath>
    <clipPath
       clipPathUnits="userSpaceOnUse"
       id="clipPath12">
      <use
         xlink:href="#SVGID_00000105414853600283290720000017360153226701225652_"
         style="overflow:visible"
         id="use12" />
    </clipPath>
    <clipPath
       clipPathUnits="userSpaceOnUse"
       id="clipPath13">
      <use
         xlink:href="#SVGID_00000105414853600283290720000017360153226701225652_"
         style="overflow:visible"
         id="use13" />
    </clipPath>
    <clipPath
       clipPathUnits="userSpaceOnUse"
       id="clipPath14">
      <use
         xlink:href="#SVGID_00000105414853600283290720000017360153226701225652_"
         style="overflow:visible"
         id="use14" />
    </clipPath>
    <clipPath
       clipPathUnits="userSpaceOnUse"
       id="clipPath15">
      <use
         xlink:href="#SVGID_00000105414853600283290720000017360153226701225652_"
         style="overflow:visible"
         id="use15" />
    </clipPath>
    <clipPath
       clipPathUnits="userSpaceOnUse"
       id="clipPath16">
      <use
         xlink:href="#SVGID_00000105414853600283290720000017360153226701225652_"
         style="overflow:visible"
         id="use16" />
    </clipPath>
    <clipPath
       clipPathUnits="userSpaceOnUse"
       id="clipPath17">
      <use
         xlink:href="#SVGID_00000105414853600283290720000017360153226701225652_"
         style="overflow:visible"
         id="use17" />
    </clipPath>
    <clipPath
       clipPathUnits="userSpaceOnUse"
       id="clipPath18">
      <use
         xlink:href="#SVGID_00000105414853600283290720000017360153226701225652_"
         style="overflow:visible"
         id="use18" />
    </clipPath>
    <clipPath
       clipPathUnits="userSpaceOnUse"
       id="clipPath19">
      <use
         xlink:href="#SVGID_00000105414853600283290720000017360153226701225652_"
         style="overflow:visible"
         id="use19" />
    </clipPath>
    <clipPath
       clipPathUnits="userSpaceOnUse"
       id="clipPath20">
      <use
         xlink:href="#SVGID_00000105414853600283290720000017360153226701225652_"
         style="overflow:visible"
         id="use20" />
    </clipPath>
    <defs
       id="defs235">
      <rect
         id="rect1106"
         y="0"
         width="640"
         height="483.70001"
         x="0" />
    </defs>
    <clipPath
       id="clipPath762">
      <use
         xlink:href="#SVGID_00000105414853600283290720000017360153226701225652_"
         style="overflow:visible"
         id="use760" />
    </clipPath>
  </defs>
  <g
     inkscape:label="Calque 1"
     inkscape:groupmode="layer"
     id="layer1">
    <g
       id="g21">
      <path
         class="st26"
         d="m 19.4,463.3 c -0.2,0 0,0.1 0.3,0.2 0.1,-0.1 0.2,-0.1 0.2,-0.2 -0.1,0 -0.3,0 -0.5,0"
         id="path240"
         style="opacity:0.71;fill:#ececec"
         clip-path="url(#clipPath20)"
         transform="matrix(0.26458439,0,0,0.26458333,-3.1190053,-118.71854)" />
      <path
         class="st26"
         d="m 20.6,463 c 0.1,-0.2 0.2,-0.4 0.3,-0.6 0,0.1 -0.1,0.3 -0.2,0.4 -0.4,0.3 0,-0.2 0,-0.3 -0.5,0.6 -0.1,0.3 -0.1,0.5"
         id="path242"
         style="opacity:0.71;fill:#ececec"
         clip-path="url(#clipPath19)"
         transform="matrix(0.26458439,0,0,0.26458333,-3.1190053,-118.71854)" />
      <path
         class="st26"
         d="m 21,461.8 c 0,-0.4 -0.1,-0.3 -0.1,-0.1 0.1,0 0.1,0.3 0.1,0.1"
         id="path244"
         style="opacity:0.71;fill:#ececec"
         clip-path="url(#clipPath18)"
         transform="matrix(0.26458439,0,0,0.26458333,-3.1190053,-118.71854)" />
      <path
         class="st26"
         d="m 18.5,456.3 c 0.1,0 0.3,0 0.2,0.1 0.2,-0.1 0.2,-0.1 -0.2,-0.1"
         id="path246"
         style="opacity:0.71;fill:#ececec"
         clip-path="url(#clipPath17)"
         transform="matrix(0.26458439,0,0,0.26458333,-3.1190053,-118.71854)" />
      <path
         class="st26"
         d="m 18.8,456.4 v 0 0 0"
         id="path248"
         style="opacity:0.71;fill:#ececec"
         clip-path="url(#clipPath16)"
         transform="matrix(0.26458439,0,0,0.26458333,-3.1190053,-118.71854)" />
      <path
         class="st26"
         d="m 22.5,462 c 0,0.4 -0.1,0.5 -0.2,0.9 l -0.2,0.1 c -0.2,0.3 0,0.2 -0.1,0.4 -0.2,0.2 -0.8,0.7 -0.9,0.7 -0.1,0 0.1,-0.1 0.1,-0.2 -0.3,0.2 -0.3,0.3 -0.8,0.5 v 0 c -1.3,0.6 -3,-0.6 -3,-2.2 0,0.1 0,0.1 -0.1,0.1 -0.1,-0.8 0.4,-1.6 1.1,-2 0.7,-0.4 1.6,-0.2 2.1,0.3 -0.3,-0.4 -0.9,-0.8 -1.5,-0.7 -0.7,0 -1.3,0.4 -1.5,0.9 -0.3,0.2 -0.4,0.8 -0.5,0.9 -0.2,1.5 0.4,2.1 1.3,2.8 0.2,0.1 0,0.1 0.1,0.2 -0.3,-0.2 -0.6,-0.4 -0.9,-0.7 0.1,0.2 0.3,0.4 0.4,0.5 -0.3,-0.1 -0.7,-0.7 -0.8,-0.8 0.5,0.9 2.1,1.6 3,1.3 -0.4,0 -0.9,0 -1.3,-0.2 -0.2,-0.1 -0.4,-0.3 -0.4,-0.3 1.1,0.4 2.3,0.3 3.3,-0.5 0.3,-0.2 0.5,-0.5 0.6,-0.5 -0.1,0.2 0,0.1 -0.1,0.2 0.3,-0.4 -0.1,-0.2 0.3,-0.7 l 0.1,0.2 c -0.1,-0.3 0.4,-0.7 0.4,-1.3 0.1,-0.2 0.1,0.2 0,0.6 0.2,-0.4 0,-0.5 0.1,-0.8 0,0.1 0.1,0.2 0.1,0.4 -0.1,-0.4 0.1,-0.7 0.2,-0.9 -0.1,0 -0.2,0.2 -0.2,-0.3 0,-0.2 0.1,-0.1 0.1,-0.2 0,0 -0.1,-0.2 -0.2,-0.5 0,-0.1 0.1,0.2 0.2,0.2 0,-0.2 -0.1,-0.4 -0.1,-0.6 -0.2,-0.4 -0.1,0.1 -0.2,-0.2 -0.2,-0.6 0.2,-0.1 0.2,-0.4 0.3,0.4 0.5,1.1 0.6,1.4 -0.1,-0.3 -0.2,-0.7 -0.3,-1 0.1,0 -0.1,-0.7 0.1,-0.2 -0.3,-1 -1.2,-2 -2.1,-2.5 0.1,0.1 0.2,0.2 0.2,0.2 -0.4,-0.3 -0.4,-0.3 -0.4,-0.4 -0.3,-0.1 -0.4,0 -0.6,0 -0.7,-0.3 -0.8,-0.3 -1.4,-0.5 v 0.1 c -0.4,-0.1 -0.5,0.1 -1,0 0,0 0.1,-0.1 0.3,-0.1 -0.4,0.1 -0.4,-0.1 -0.8,0 0.1,-0.1 0.2,-0.1 0.3,-0.2 -0.3,0 -0.8,0.2 -0.7,0 -0.6,0.2 -1.5,0.6 -2.1,1.1 V 457 c -0.3,0.3 -1.1,0.9 -1.2,1.3 H 14 c -0.1,0.2 -0.2,0.5 -0.3,0.7 -0.2,0.3 -0.3,0.1 -0.2,0.2 -0.3,0.7 -0.5,1.3 -0.7,1.7 0.1,0.2 0,0.9 0,1.6 -0.2,3.1 2.2,6.1 4.7,6.8 0.4,0.1 0.9,0.1 1.4,0.1 -0.6,-0.2 -0.6,-0.1 -1.2,-0.3 -0.4,-0.2 -0.5,-0.4 -0.8,-0.6 l 0.1,0.2 c -0.5,-0.2 -0.3,-0.2 -0.8,-0.4 l 0.1,-0.2 c -0.2,0 -0.5,-0.3 -0.5,-0.5 h -0.2 c -0.2,-0.3 -0.4,-0.5 -0.3,-0.7 l -0.1,0.1 c -0.1,-0.1 -0.9,-1.1 -0.4,-0.9 -0.1,-0.1 -0.2,-0.1 -0.3,-0.3 l 0.1,-0.1 c -0.2,-0.3 -0.4,-0.6 -0.3,-0.7 0.1,0.1 0.2,0.2 0.2,0.2 C 14,464 14,465.1 13.6,464 h 0.1 c -0.1,-0.1 -0.1,-0.2 -0.1,-0.3 v -0.3 c -0.4,-0.4 -0.1,-1.8 0,-2.5 0,-0.3 0.3,-0.6 0.5,-1.1 H 14 c 0.2,-0.4 1.3,-1.6 1.8,-1.6 0.2,-0.3 0,0 -0.1,-0.1 0.5,-0.6 0.7,-0.4 1.1,-0.5 0.4,-0.2 -0.3,0.1 -0.2,-0.1 0.7,-0.2 0.5,-0.4 1.4,-0.5 0.1,0.1 -0.2,0.1 -0.3,0.2 0.6,-0.3 1.8,-0.2 2.6,0.2 0.9,0.4 2,1.7 2,2.9 v 0 c 0,0.5 0.1,1 -0.1,1.5 l 0.3,0.2"
         id="path250"
         style="opacity:0.71;fill:#ececec"
         clip-path="url(#clipPath15)"
         transform="matrix(0.26458439,0,0,0.26458333,-3.1190053,-118.71854)" />
      <path
         class="st26"
         d="m 16.9,463.6 v 0.2 c 0.1,0.2 0.3,0.4 0.5,0.6 -0.2,-0.3 -0.3,-0.4 -0.5,-0.8"
         id="path252"
         style="opacity:0.71;fill:#ececec"
         clip-path="url(#clipPath14)"
         transform="matrix(0.26458439,0,0,0.26458333,-3.1190053,-118.71854)" />
      <path
         class="st26"
         d="m 17.3,463.6 c -0.1,-0.1 -0.1,-0.2 -0.2,-0.3 0,0.2 0.2,0.3 0.2,0.5 v -0.2"
         id="path254"
         style="opacity:0.71;fill:#ececec"
         clip-path="url(#clipPath13)"
         transform="matrix(0.26458439,0,0,0.26458333,-3.1190053,-118.71854)" />
      <path
         class="st26"
         d="m 23.5,462.2 v 0 c -0.1,0.5 -0.2,0.9 -0.4,1.3 0.1,-0.3 0.3,-0.8 0.4,-1.3"
         id="path256"
         style="opacity:0.71;fill:#ececec"
         clip-path="url(#clipPath12)"
         transform="matrix(0.26458439,0,0,0.26458333,-3.1190053,-118.71854)" />
      <path
         class="st26"
         d="m 18.6,456.2 c 0.2,-0.1 0.4,0 0.5,-0.1 -0.2,0 -0.4,0.1 -0.5,0.1 v 0"
         id="path258"
         style="opacity:0.71;fill:#ececec"
         clip-path="url(#clipPath11)"
         transform="matrix(0.26458439,0,0,0.26458333,-3.1190053,-118.71854)" />
      <path
         class="st26"
         d="m 13.2,459 c 0,0.3 -0.2,0.4 0.1,0.2 0.2,-0.3 -0.1,0 -0.1,-0.2"
         id="path260"
         style="opacity:0.71;fill:#ececec"
         clip-path="url(#clipPath10)"
         transform="matrix(0.26458439,0,0,0.26458333,-3.1190053,-118.71854)" />
      <path
         class="st26"
         d="m 12.9,460.5 c 0.1,-0.2 0.1,-0.3 0.1,-0.5 -0.2,0.3 -0.1,0.4 -0.1,0.5"
         id="path262"
         style="opacity:0.71;fill:#ececec"
         clip-path="url(#clipPath9)"
         transform="matrix(0.26458439,0,0,0.26458333,-3.1190053,-118.71854)" />
    </g>
    <g
       id="g20">
      <path
         class="st26"
         d="m 35.1,461.3 c 0,0 0,2.7 0,3.4 0,0.6 -0.1,1.8 -1.3,1.8 -1.2,0 -1.5,-1.4 -1.6,-2 -0.1,-0.7 -0.1,-1.3 -0.1,-1.5 0,-0.8 0,-3 1.9,-3 0.6,0 0.9,0.2 1.1,0.3 z m -4.8,2 c 0,4.7 2.5,4.7 2.9,4.7 1,0 1.7,-0.6 2,-1.6 v 1.5 c 0.3,0 0.6,0 1.2,0 0.2,0 0.3,0 0.5,0 0.1,0 0.3,0 0.4,0 -0.3,-0.5 -0.5,-1.7 -0.5,-4.4 0,-2.5 0,-6.9 0.2,-8.2 -0.6,0.3 -1.1,0.5 -2.3,0.6 0.5,0.5 0.5,0.7 0.5,3 -0.3,-0.1 -0.7,-0.2 -1.4,-0.2 -3,0.1 -3.5,2.7 -3.5,4.6"
         id="path266"
         style="opacity:0.71;fill:#ececec"
         clip-path="url(#clipPath8)"
         transform="matrix(0.26458439,0,0,0.26458333,-3.1190053,-118.71854)" />
      <path
         class="st26"
         d="m 39.4,462.5 c 0,-1.4 0.3,-2.6 1.5,-2.6 1.3,0 1.4,1.4 1.4,2.6 z m 4.5,0.1 c 0,-2 -0.4,-3.9 -2.9,-3.9 -3.4,0 -3.4,3.8 -3.4,4.6 0,3.4 1.5,4.7 4.1,4.7 1.1,0 1.7,-0.2 2,-0.2 0,-0.6 0.1,-1 0.2,-1.5 -0.4,0.2 -0.8,0.5 -1.8,0.5 -2.6,0 -2.6,-2.4 -2.6,-3.2 H 44 l -0.1,-1"
         id="path268"
         style="opacity:0.71;fill:#ececec"
         clip-path="url(#clipPath7)"
         transform="matrix(0.26458439,0,0,0.26458333,-3.1190053,-118.71854)" />
      <path
         class="st26"
         d="m 49.3,463.3 c 0,1.6 -0.3,3.7 -2.2,3.7 -0.3,0 -0.6,0 -0.8,-0.1 0,-0.6 0,-1.6 0,-2.8 0,-1.4 0.2,-2.2 0.3,-2.6 0.4,-1.2 1.1,-1.2 1.3,-1.2 1.2,0 1.4,1.7 1.4,3 z m -4.8,1.9 c 0,1.2 0,1.9 -0.2,2.5 0.7,0.3 1.5,0.4 2.6,0.4 0.7,0 2.5,0 3.6,-2.1 0.5,-1 0.7,-2.3 0.7,-3.3 0,-0.6 -0.1,-1.9 -0.6,-2.8 -0.5,-0.8 -1.2,-1.2 -2,-1.2 -1.6,0 -2.1,1.3 -2.3,2 0,-0.9 0,-3.8 0.2,-5.4 -1.1,0.5 -1.8,0.6 -2.5,0.7 0.7,0.3 0.7,1.4 0.7,5 l -0.2,4.2"
         id="path270"
         style="opacity:0.71;fill:#ececec"
         clip-path="url(#clipPath6)"
         transform="matrix(0.26458439,0,0,0.26458333,-3.1190053,-118.71854)" />
      <path
         class="st26"
         d="m 54.3,468 c -0.3,0 -0.6,-0.1 -1.1,-0.1 -0.5,0 -0.9,0 -1.3,0.1 0.2,-0.3 0.2,-0.5 0.3,-1.6 0.1,-1.5 0.1,-5.5 0,-6.3 -0.1,-0.6 -0.2,-0.7 -0.5,-0.9 1.4,-0.1 1.8,-0.2 2.4,-0.5 -0.1,0.7 -0.2,1.1 -0.2,2.2 0.1,5.8 0.1,6.4 0.4,7.1"
         id="path272"
         style="opacity:0.71;fill:#ececec"
         clip-path="url(#clipPath5)"
         transform="matrix(0.26458439,0,0,0.26458333,-3.1190053,-118.71854)" />
      <path
         class="st26"
         d="m 59.7,463.2 c 0,1.1 0,1.8 -0.3,2.4 -0.4,0.7 -0.9,1 -1.4,1 -1,0 -1.2,-0.8 -1.2,-1.7 0,-1.6 1.4,-1.7 2,-1.7 z m -4.6,2.1 c 0,1.1 0.3,2.1 1.3,2.6 0.4,0.2 0.8,0.2 1,0.2 1.5,0 2.1,-1.1 2.4,-1.9 0,0.7 0,1.2 0,1.8 0.3,0 0.6,0 1.1,0 0.3,0 0.6,0 0.8,0 -0.2,-0.3 -0.3,-0.5 -0.3,-1.1 0,-0.6 0,-1.3 0,-2.2 v -3.4 c 0,-1.3 -0.3,-2.5 -2.8,-2.5 -1.7,0 -2.6,0.5 -3.1,0.7 0.2,0.4 0.4,0.7 0.5,1.4 0.7,-0.6 1.5,-0.9 2.4,-0.9 1.4,0 1.4,0.9 1.4,2.2 -0.3,0 -0.6,0 -1,0 -2.3,0 -3.7,0.8 -3.7,3.1"
         id="path274"
         style="opacity:0.71;fill:#ececec"
         clip-path="url(#clipPath4)"
         transform="matrix(0.26458439,0,0,0.26458333,-3.1190053,-118.71854)" />
      <path
         class="st26"
         d="m 69.4,466.3 c 0,0.6 0,1.2 0.2,1.7 -0.4,0 -0.6,-0.1 -1.3,-0.1 -0.4,0 -0.6,0 -0.9,0.1 0.1,-0.2 0.1,-0.3 0.1,-0.6 0,-0.4 0.1,-1.7 0.1,-2.1 v -1.8 c 0,-0.8 0,-1.9 0,-2.3 0,-0.3 -0.1,-1.1 -1.1,-1.1 -0.9,0 -1.3,0.7 -1.4,1.3 -0.1,0.6 -0.1,1.2 -0.1,3.7 0,2.1 0,2.3 0.2,2.9 -0.3,0 -0.6,-0.1 -1.1,-0.1 -0.4,0 -0.7,0 -1,0.1 0.1,-0.3 0.2,-0.4 0.2,-1.3 0,-0.9 0.1,-5.4 0,-6.5 -0.1,-0.7 -0.2,-0.8 -0.4,-1 1.4,-0.1 1.8,-0.3 2.2,-0.5 v 1.8 c 0.2,-0.5 0.6,-1.7 2.3,-1.7 2.1,0 2.1,1.5 2.1,2.5 l -0.1,5"
         id="path276"
         style="opacity:0.71;fill:#ececec"
         clip-path="url(#clipPath3)"
         transform="matrix(0.26458439,0,0,0.26458333,-3.1190053,-118.71854)" />
      <path
         class="st26"
         d="m 54.5,456.3 -1.4,1.4 -1.4,-1.4 1.4,-1.4 1.4,1.4"
         id="path278"
         style="opacity:0.71;fill:#ececec"
         clip-path="url(#clipPath2)"
         transform="matrix(0.26458439,0,0,0.26458333,-3.1190053,-118.71854)" />
    </g>
    <path
       d="m 78.441335,460.83872 q 0,-1.22666 0,-2.16889 0.01633,-0.94222 0.03266,-1.47556 0.01633,-0.55111 0.03266,-0.87112 0.03266,-0.33777 0.08164,-0.76444 -0.849097,0.60445 -2.106414,1.04889 -1.257316,0.44445 -2.628935,0.74667 0.04898,0.42667 0.06531,0.67556 0.03266,0.24888 0.03266,0.62222 l -0.01633,0.58667 q 0.669481,-0.48 1.730852,-0.81778 0.04898,0.40889 0.04898,0.56889 0.01633,0.14222 0.03266,0.48 0.01633,0.32 0.01633,0.7289 0.01633,0.40888 0.03266,1.35111 v 2.18667 q -0.01633,1.42222 -0.03266,1.99111 0,0.56889 -0.01633,0.97778 -0.01633,0.55111 -0.06531,0.83556 -0.04898,0.26667 -0.163288,0.67555 0.359234,-0.0533 0.669481,-0.0712 0.326576,-0.0177 0.718467,-0.0177 0.832768,0 1.175673,0.0177 0.342904,0.0177 0.718466,0.0712 -0.163288,-0.33777 -0.228603,-0.67555 -0.06531,-0.35556 -0.08164,-1.15556 -0.03266,-0.76444 -0.03266,-1.29778 -0.01633,-0.65778 -0.01633,-1.90223 z m 7.217325,0.83556 q 0.963398,-0.16 1.48592,-0.99556 0.52252,-0.83555 0.52252,-1.88445 0,-0.65777 -0.179616,-1.15555 -0.179616,-0.49778 -0.457207,-0.81779 -0.26126,-0.32 -0.538849,-0.49778 -0.27759,-0.19554 -0.53885,-0.30221 -0.587837,-0.24889 -1.681866,-0.24889 -0.571507,0 -1.094028,0.0712 -0.506192,0.0533 -1.159344,0.19556 -0.01633,0.72888 -0.06531,1.28 -0.03266,0.53333 -0.09797,1.10223 0.277589,-0.21334 0.587836,-0.33778 0.326576,-0.12445 0.881755,-0.12445 0.767453,0 1.159344,0.42667 0.408219,0.40888 0.408219,1.08444 0,0.53334 -0.195945,0.85334 -0.195945,0.31999 -0.522521,0.47999 -0.310247,0.14223 -0.620495,0.19556 -0.310246,0.0356 -0.685808,0.0356 -0.212274,0 -0.375562,0 -0.146959,-0.0177 -0.342905,-0.0533 0.01633,0.23112 0.01633,0.53334 0,0.32 0.01633,0.55112 -0.01633,0.23111 -0.01633,0.51555 0,0.30222 -0.01633,0.53333 0.01633,0 0.06531,-0.0177 0.26126,-0.0356 0.440877,-0.0533 0.179616,-0.0177 0.555179,-0.0177 1.094028,0 1.567563,0.42667 0.473535,0.40888 0.473535,1.20889 0,0.64 -0.375563,1.12 -0.359232,0.46222 -1.159344,0.46222 -1.094028,0 -1.87781,-0.64 -0.06531,0.87112 -0.146959,1.35112 -0.08164,0.46222 -0.244932,0.99555 0.653151,0.23111 1.420605,0.30223 0.767453,0.0889 1.257317,0.0889 0.914411,0 1.714523,-0.23111 0.80011,-0.23111 1.306303,-0.7111 0.457206,-0.4089 0.751123,-1.12001 0.293918,-0.71111 0.293918,-1.61778 0,-0.81778 -0.26126,-1.36889 -0.244932,-0.55111 -0.636822,-0.85334 -0.375563,-0.30222 -0.734796,-0.42667 -0.359234,-0.12443 -0.783782,-0.2311 -0.01633,0 -0.03266,0 l -0.40822,-0.0712 z"
       id="text1"
       style="font-weight:bold;font-stretch:expanded;font-size:17.0379px;font-family:Poppl-Laudatio-Condensed;-inkscape-font-specification:'Poppl-Laudatio-Condensed Bold Expanded';fill:#ececec;stroke-width:1.41983"
       aria-label="13"
       clip-path="url(#clipPath1)"
       transform="matrix(0.26458439,0,0,0.26458333,-3.1190053,-118.71854)" />
  </g>
</svg>
