<?xml version="1.0" encoding="UTF-8" standalone="no"?>
<!-- Created with Inkscape (http://www.inkscape.org/) -->

<svg
   width="59"
   height="26"
   viewBox="0 0 15.610424 6.8791668"
   version="1.1"
   id="svg908"
   inkscape:version="1.4 (e7c3feb100, 2024-10-09)"
   sodipodi:docname="logo-text.svg"
   xmlns:inkscape="http://www.inkscape.org/namespaces/inkscape"
   xmlns:sodipodi="http://sodipodi.sourceforge.net/DTD/sodipodi-0.dtd"
   xmlns:xlink="http://www.w3.org/1999/xlink"
   xmlns="http://www.w3.org/2000/svg"
   xmlns:svg="http://www.w3.org/2000/svg">
  <sodipodi:namedview
     id="namedview910"
     pagecolor="#ffffff"
     bordercolor="#666666"
     borderopacity="1.0"
     inkscape:showpageshadow="2"
     inkscape:pageopacity="0.0"
     inkscape:pagecheckerboard="0"
     inkscape:deskcolor="#d1d1d1"
     inkscape:document-units="mm"
     showgrid="false"
     inkscape:zoom="16.932129"
     inkscape:cx="23.239842"
     inkscape:cy="14.085647"
     inkscape:window-width="1495"
     inkscape:window-height="1223"
     inkscape:window-x="0"
     inkscape:window-y="0"
     inkscape:window-maximized="0"
     inkscape:current-layer="layer1" />
  <defs
     id="defs905">
    <rect
       id="SVGID_00000105414853600283290720000017360153226701225652_"
       y="0"
       width="640"
       height="483.70001"
       x="0" />
    <defs
       id="defs235">
      <rect
         id="rect1106"
         y="0"
         width="640"
         height="483.70001"
         x="0" />
    </defs>
    <clipPath
       id="clipPath762">
      <use
         xlink:href="#SVGID_00000105414853600283290720000017360153226701225652_"
         style="overflow:visible"
         id="use760" />
    </clipPath>
    <clipPath
       clipPathUnits="userSpaceOnUse"
       id="clipPath1">
      <use
         xlink:href="#SVGID_00000105414853600283290720000017360153226701225652_"
         style="overflow:visible"
         id="use1"
         transform="matrix(0.26458439,0,0,0.26458333,-3.1190052,-118.71854)" />
    </clipPath>
    <clipPath
       clipPathUnits="userSpaceOnUse"
       id="clipPath2">
      <use
         xlink:href="#SVGID_00000105414853600283290720000017360153226701225652_"
         style="overflow:visible"
         id="use2"
         transform="matrix(0.26458439,0,0,0.26458333,-3.1190052,-118.71854)" />
    </clipPath>
    <clipPath
       clipPathUnits="userSpaceOnUse"
       id="clipPath3">
      <use
         xlink:href="#SVGID_00000105414853600283290720000017360153226701225652_"
         style="overflow:visible"
         id="use3"
         transform="matrix(0.26458439,0,0,0.26458333,-3.1190052,-118.71854)" />
    </clipPath>
    <clipPath
       clipPathUnits="userSpaceOnUse"
       id="clipPath4">
      <use
         xlink:href="#SVGID_00000105414853600283290720000017360153226701225652_"
         style="overflow:visible"
         id="use4"
         transform="matrix(0.26458439,0,0,0.26458333,-3.1190052,-118.71854)" />
    </clipPath>
    <clipPath
       clipPathUnits="userSpaceOnUse"
       id="clipPath5">
      <use
         xlink:href="#SVGID_00000105414853600283290720000017360153226701225652_"
         style="overflow:visible"
         id="use5"
         transform="matrix(0.26458439,0,0,0.26458333,-3.1190052,-118.71854)" />
    </clipPath>
    <clipPath
       clipPathUnits="userSpaceOnUse"
       id="clipPath6">
      <use
         xlink:href="#SVGID_00000105414853600283290720000017360153226701225652_"
         style="overflow:visible"
         id="use6"
         transform="matrix(0.26458439,0,0,0.26458333,-3.1190052,-118.71854)" />
    </clipPath>
    <clipPath
       clipPathUnits="userSpaceOnUse"
       id="clipPath7">
      <use
         xlink:href="#SVGID_00000105414853600283290720000017360153226701225652_"
         style="overflow:visible"
         id="use7"
         transform="matrix(0.26458439,0,0,0.26458333,-3.1190052,-118.71854)" />
    </clipPath>
    <clipPath
       clipPathUnits="userSpaceOnUse"
       id="clipPath8">
      <use
         xlink:href="#SVGID_00000105414853600283290720000017360153226701225652_"
         style="overflow:visible"
         id="use8"
         transform="matrix(0.26458439,0,0,0.26458333,-3.1190052,-118.71854)" />
    </clipPath>
    <clipPath
       clipPathUnits="userSpaceOnUse"
       id="clipPath9">
      <use
         xlink:href="#SVGID_00000105414853600283290720000017360153226701225652_"
         style="overflow:visible"
         id="use9"
         transform="matrix(0.26458439,0,0,0.26458333,-3.1190052,-118.71854)" />
    </clipPath>
    <clipPath
       clipPathUnits="userSpaceOnUse"
       id="clipPath10">
      <use
         xlink:href="#SVGID_00000105414853600283290720000017360153226701225652_"
         style="overflow:visible"
         id="use10"
         transform="matrix(0.26458439,0,0,0.26458333,-3.1190052,-118.71854)" />
    </clipPath>
    <clipPath
       clipPathUnits="userSpaceOnUse"
       id="clipPath11">
      <use
         xlink:href="#SVGID_00000105414853600283290720000017360153226701225652_"
         style="overflow:visible"
         id="use11"
         transform="matrix(0.26458439,0,0,0.26458333,-3.1190052,-118.71854)" />
    </clipPath>
    <clipPath
       clipPathUnits="userSpaceOnUse"
       id="clipPath12">
      <use
         xlink:href="#SVGID_00000105414853600283290720000017360153226701225652_"
         style="overflow:visible"
         id="use12"
         transform="matrix(0.26458439,0,0,0.26458333,-3.1190052,-118.71854)" />
    </clipPath>
    <clipPath
       clipPathUnits="userSpaceOnUse"
       id="clipPath13">
      <use
         xlink:href="#SVGID_00000105414853600283290720000017360153226701225652_"
         style="overflow:visible"
         id="use13"
         transform="matrix(0.26458439,0,0,0.26458333,-3.1190052,-118.71854)" />
    </clipPath>
    <clipPath
       clipPathUnits="userSpaceOnUse"
       id="clipPath14">
      <use
         xlink:href="#SVGID_00000105414853600283290720000017360153226701225652_"
         style="overflow:visible"
         id="use14"
         transform="matrix(0.26458439,0,0,0.26458333,-3.1190052,-118.71854)" />
    </clipPath>
    <clipPath
       clipPathUnits="userSpaceOnUse"
       id="clipPath15">
      <use
         xlink:href="#SVGID_00000105414853600283290720000017360153226701225652_"
         style="overflow:visible"
         id="use15"
         transform="matrix(0.26458439,0,0,0.26458333,-3.1190052,-118.71854)" />
    </clipPath>
    <clipPath
       clipPathUnits="userSpaceOnUse"
       id="clipPath16">
      <use
         xlink:href="#SVGID_00000105414853600283290720000017360153226701225652_"
         style="overflow:visible"
         id="use16"
         transform="matrix(0.26458439,0,0,0.26458333,-3.1190052,-118.71854)" />
    </clipPath>
    <clipPath
       clipPathUnits="userSpaceOnUse"
       id="clipPath17">
      <use
         xlink:href="#SVGID_00000105414853600283290720000017360153226701225652_"
         style="overflow:visible"
         id="use17"
         transform="matrix(0.26458439,0,0,0.26458333,-3.1190052,-118.71854)" />
    </clipPath>
    <clipPath
       clipPathUnits="userSpaceOnUse"
       id="clipPath18">
      <use
         xlink:href="#SVGID_00000105414853600283290720000017360153226701225652_"
         style="overflow:visible"
         id="use18"
         transform="matrix(0.26458439,0,0,0.26458333,-3.1190052,-118.71854)" />
    </clipPath>
    <clipPath
       clipPathUnits="userSpaceOnUse"
       id="clipPath19">
      <use
         xlink:href="#SVGID_00000105414853600283290720000017360153226701225652_"
         style="overflow:visible"
         id="use19"
         transform="matrix(0.26458439,0,0,0.26458333,-3.1190052,-118.71854)" />
    </clipPath>
  </defs>
  <g
     inkscape:label="Calque 1"
     inkscape:groupmode="layer"
     id="layer1">
    <g
       id="g20">
      <path
         class="st26"
         d="m 2.0139319,3.8629168 c -0.052917,0 0,0.026458 0.079375,0.052917 0.026458,-0.026458 0.052917,-0.026458 0.052917,-0.052917 -0.026458,0 -0.079375,0 -0.1322922,0"
         id="path240"
         style="opacity:0.71;fill:#e6e6e6;stroke-width:0.264584"
         clip-path="url(#clipPath19)" />
      <path
         class="st26"
         d="m 2.3314331,3.7835418 c 0.026458,-0.052917 0.052917,-0.1058333 0.079375,-0.15875 0,0.026458 -0.026458,0.079375 -0.052917,0.1058333 -0.1058338,0.079375 0,-0.052917 0,-0.079375 -0.1322922,0.15875 -0.026458,0.079375 -0.026458,0.1322917"
         id="path242"
         style="opacity:0.71;fill:#e6e6e6;stroke-width:0.264584"
         clip-path="url(#clipPath18)" />
      <path
         class="st26"
         d="m 2.4372669,3.4660418 c 0,-0.1058333 -0.026458,-0.079375 -0.026458,-0.026458 0.026458,0 0.026458,0.079375 0.026458,0.026458"
         id="path244"
         style="opacity:0.71;fill:#e6e6e6;stroke-width:0.264584"
         clip-path="url(#clipPath17)" />
      <path
         class="st26"
         d="m 1.7758059,2.0108335 c 0.026459,0 0.079375,0 0.052917,0.026458 0.052917,-0.026458 0.052917,-0.026458 -0.052917,-0.026458"
         id="path246"
         style="opacity:0.71;fill:#e6e6e6;stroke-width:0.264584"
         clip-path="url(#clipPath16)" />
      <path
         class="st26"
         d="m 1.8551812,2.0372918 v 0 0 0"
         id="path248"
         style="opacity:0.71;fill:#e6e6e6;stroke-width:0.264584"
         clip-path="url(#clipPath15)" />
      <path
         class="st26"
         d="m 2.8341435,3.5189585 c 0,0.1058333 -0.026458,0.1322916 -0.052917,0.238125 l -0.052917,0.026458 c -0.052917,0.079375 0,0.052917 -0.026458,0.1058333 -0.052917,0.052917 -0.2116675,0.1852084 -0.238126,0.1852084 -0.026458,0 0.026458,-0.026458 0.026458,-0.052917 -0.079375,0.052917 -0.079375,0.079375 -0.2116675,0.1322917 v 0 c -0.3439598,0.15875 -0.7937532,-0.15875 -0.7937532,-0.5820834 0,0.026458 0,0.026458 -0.026458,0.026458 C 1.4318462,3.3866668 1.5641384,3.1750001 1.7493475,3.0691668 1.9345565,2.9633335 2.1726825,3.0162501 2.3049747,3.1485418 2.2255994,3.0427085 2.0668487,2.9368751 1.9080981,2.9633335 c -0.1852091,0 -0.3439597,0.1058333 -0.3968766,0.238125 -0.079375,0.052917 -0.1058337,0.2116666 -0.1322922,0.238125 -0.052917,0.396875 0.1058338,0.555625 0.3439597,0.7408333 0.052917,0.026458 0,0.026458 0.026459,0.052917 C 1.6699722,4.1804168 1.5905968,4.1275001 1.5112215,4.0481251 1.53768,4.1010418 1.5905968,4.1539585 1.6170553,4.1804168 1.53768,4.1539585 1.4318462,3.9952085 1.4053878,3.9687501 1.53768,4.2068751 1.961015,4.3920834 2.1991409,4.3127085 c -0.1058337,0 -0.2381259,0 -0.3439597,-0.052917 C 1.8022642,4.2333335 1.7493475,4.1804165 1.7493475,4.1804165 2.0403903,4.2862498 2.3578916,4.2597915 2.622476,4.0481248 2.701851,3.9952078 2.7547682,3.9158332 2.7812266,3.9158332 c -0.026458,0.052917 0,0.026458 -0.026458,0.052917 0.079375,-0.1058333 -0.026458,-0.052917 0.079375,-0.1852083 l 0.026458,0.052917 c -0.026458,-0.079375 0.1058338,-0.1852084 0.1058338,-0.3439584 0.026458,-0.052917 0.026458,0.052917 0,0.15875 0.052917,-0.1058333 0,-0.1322916 0.026458,-0.2116666 0,0.026458 0.026458,0.052917 0.026458,0.1058333 -0.026458,-0.1058333 0.026458,-0.1852083 0.052917,-0.238125 -0.026458,0 -0.052917,0.052917 -0.052917,-0.079375 0,-0.052917 0.026458,-0.026458 0.026458,-0.052917 0,0 -0.026458,-0.052917 -0.052917,-0.1322916 0,-0.026458 0.026458,0.052917 0.052917,0.052917 0,-0.052917 -0.026458,-0.1058333 -0.026458,-0.15875 -0.052917,-0.1058333 -0.026458,0.026458 -0.052917,-0.052917 -0.052917,-0.15875 0.052917,-0.026458 0.052917,-0.1058334 0.079375,0.1058334 0.1322922,0.2910417 0.1587507,0.3704167 -0.026458,-0.079375 -0.052917,-0.1852083 -0.079375,-0.2645833 0.026458,0 -0.026458,-0.1852084 0.026458,-0.052917 C 3.045811,2.5664585 2.807685,2.3018751 2.5695591,2.1695835 c 0.026458,0.026458 0.052917,0.052917 0.052917,0.052917 -0.1058338,-0.079375 -0.1058338,-0.079375 -0.1058338,-0.1058333 -0.079375,-0.026458 -0.1058337,0 -0.1587506,0 C 2.1726825,2.0372918 2.1462241,2.0372918 1.9874734,1.9843751 v 0.026458 c -0.1058337,-0.026458 -0.1322922,0.026458 -0.2645844,0 0,0 0.026459,-0.026458 0.079375,-0.026458 -0.1058338,0.026458 -0.1058338,-0.026458 -0.2116676,0 0.026459,-0.026458 0.052917,-0.026458 0.079375,-0.052917 -0.079375,0 -0.2116676,0.052917 -0.1852091,0 -0.1587506,0.052917 -0.3968766,0.15875 -0.55562723,0.2910416 V 2.1960418 C 0.84976055,2.2754168 0.63809304,2.4341668 0.6116346,2.5400001 H 0.5851762 C 0.5587178,2.5929171 0.5322593,2.6722918 0.5058009,2.7252085 0.452884,2.8045835 0.4264256,2.7516665 0.452884,2.7781255 0.3735087,2.9633339 0.3205918,3.1220839 0.26767492,3.2279172 c 0.0264584,0.052917 0,0.238125 0,0.4233333 -0.0529169,0.8202083 0.58208566,1.6139583 1.24354658,1.7991667 0.1058338,0.026458 0.238126,0.026458 0.3704182,0.026458 C 1.722889,5.4239584 1.722889,5.4504168 1.5641384,5.3975001 1.4583046,5.3445834 1.4318462,5.2916668 1.3524709,5.2387501 l 0.026458,0.052917 C 1.2466371,5.2387501 1.299554,5.2387501 1.1672618,5.1858334 l 0.026459,-0.052917 c -0.052917,0 -0.1322922,-0.079375 -0.1322922,-0.1322917 H 1.0085112 C 0.95559431,4.9212501 0.90267743,4.8683334 0.92913587,4.8154168 l -0.0264584,0.026458 C 0.87621899,4.8154168 0.66455148,4.5508334 0.79684367,4.6037501 0.77038523,4.5772918 0.74392679,4.5772918 0.71746835,4.5243751 l 0.0264584,-0.026458 C 0.69100985,4.4185421 0.638093,4.3391671 0.66455145,4.3127088 c 0.0264584,0.026458 0.0529169,0.052917 0.0529169,0.052917 -0.13229219,-0.3175 -0.13229219,-0.026458 -0.23812595,-0.3175 H 0.5058008 C 0.4793424,4.0216668 0.4793424,3.9952085 0.4793424,3.9687501 v -0.079375 c -0.10583375,-0.1058333 -0.0264584,-0.47625 0,-0.6614583 0,-0.079375 0.0793753,-0.15875 0.1322922,-0.2910417 H 0.58517616 C 0.63809304,2.8310418 0.92913587,2.5135418 1.0614281,2.5135418 c 0.052917,-0.079375 0,0 -0.026459,-0.026458 C 1.1672613,2.3283338 1.2201782,2.3812504 1.326012,2.3547921 1.4318457,2.3018751 1.246637,2.3812501 1.273095,2.3283341 1.458304,2.2754171 1.4053872,2.2225007 1.6435131,2.1960424 c 0.026458,0.026458 -0.052917,0.026458 -0.079375,0.052917 0.1587506,-0.079375 0.4762519,-0.052917 0.6879194,0.052917 0.238126,0.1058334 0.5291688,0.4497917 0.5291688,0.7672917 v 0 c 0,0.1322917 0.026458,0.2645833 -0.026458,0.396875 l 0.079375,0.052917"
         id="path250"
         style="opacity:0.71;fill:#e6e6e6;stroke-width:0.264584"
         clip-path="url(#clipPath14)" />
      <path
         class="st26"
         d="m 1.3524709,3.9422918 v 0.052917 c 0.026458,0.052917 0.079375,0.1058333 0.1322922,0.15875 -0.052917,-0.079375 -0.079375,-0.1058337 -0.1322922,-0.211667"
         id="path252"
         style="opacity:0.71;fill:#e6e6e6;stroke-width:0.264584"
         clip-path="url(#clipPath13)" />
      <path
         class="st26"
         d="m 1.4583046,3.9422918 c -0.026458,-0.026458 -0.026458,-0.052917 -0.052917,-0.079375 0,0.052917 0.052917,0.079375 0.052917,0.1322917 v -0.052917"
         id="path254"
         style="opacity:0.71;fill:#e6e6e6;stroke-width:0.264584"
         clip-path="url(#clipPath12)" />
      <path
         class="st26"
         d="m 3.0987279,3.5718751 v 0 C 3.0722694,3.7041668 3.045811,3.8100001 2.9928941,3.9158335 3.0193525,3.8364585 3.0722694,3.7041668 3.0987279,3.5718751"
         id="path256"
         style="opacity:0.71;fill:#e6e6e6;stroke-width:0.264584"
         clip-path="url(#clipPath11)" />
      <path
         class="st26"
         d="m 1.8022644,1.9843751 c 0.052917,-0.026458 0.1058337,0 0.1322921,-0.026458 -0.052917,0 -0.1058337,0.026458 -0.1322921,0.026458 v 0"
         id="path258"
         style="opacity:0.71;fill:#e6e6e6;stroke-width:0.264584"
         clip-path="url(#clipPath10)" />
      <path
         class="st26"
         d="m 0.37350865,2.7252085 c 0,0.079375 -0.0529169,0.1058333 0.0264584,0.052917 0.0529169,-0.079375 -0.0264584,0 -0.0264584,-0.052917"
         id="path260"
         style="opacity:0.71;fill:#e6e6e6;stroke-width:0.264584"
         clip-path="url(#clipPath9)" />
      <path
         class="st26"
         d="m 0.29413333,3.1220835 c 0.0264584,-0.052917 0.0264584,-0.079375 0.0264584,-0.1322917 -0.0529169,0.079375 -0.0264584,0.1058333 -0.0264584,0.1322917"
         id="path262"
         style="opacity:0.71;fill:#e6e6e6;stroke-width:0.264584"
         clip-path="url(#clipPath8)" />
    </g>
    <g
       id="g19">
      <path
         class="st26"
         d="m 6.1679068,3.3337501 c 0,0 0,0.714375 0,0.8995834 0,0.1587499 -0.026458,0.4762499 -0.3439597,0.4762499 -0.3175013,0 -0.3968766,-0.3704166 -0.423335,-0.5291666 -0.026459,-0.1852083 -0.026459,-0.3439583 -0.026459,-0.396875 0,-0.2116667 0,-0.79375 0.5027104,-0.79375 0.1587506,0 0.2381259,0.052917 0.2910428,0.079375 z M 4.8979017,3.8629168 c 0,1.2435416 0.661461,1.2435416 0.7672947,1.2435416 0.2645844,0 0.4497935,-0.15875 0.5291688,-0.4233333 v 0.396875 c 0.079375,0 0.1587507,0 0.3175013,0 0.052917,0 0.079375,0 0.1322922,0 0.026458,0 0.079375,0 0.1058337,0 C 6.6706171,4.9477084 6.6177003,4.6302084 6.6177003,3.9158335 c 0,-0.6614584 0,-1.825625 0.052917,-2.1695834 -0.1587506,0.079375 -0.2910428,0.1322917 -0.6085441,0.15875 0.1322922,0.1322917 0.1322922,0.1852084 0.1322922,0.79375 -0.079375,-0.026458 -0.185209,-0.052917 -0.3704181,-0.052917 -0.7937532,0.026458 -0.9260454,0.714375 -0.9260454,1.2170833"
         id="path266"
         style="opacity:0.71;fill:#e6e6e6;stroke-width:0.264584"
         clip-path="url(#clipPath7)" />
      <path
         class="st26"
         d="m 7.3056197,3.6512501 c 0,-0.3704166 0.079375,-0.6879166 0.3968766,-0.6879166 0.3439597,0 0.3704181,0.3704166 0.3704181,0.6879166 z m 1.1906297,0.026458 c 0,-0.5291667 -0.1058337,-1.031875 -0.7672947,-1.031875 -0.8995869,0 -0.8995869,1.0054166 -0.8995869,1.2170833 0,0.8995833 0.3968765,1.2435416 1.084796,1.2435416 0.2910428,0 0.4497934,-0.052917 0.5291687,-0.052917 0,-0.15875 0.026459,-0.2645834 0.052917,-0.396875 C 8.3904158,4.709583 8.284582,4.7889576 8.0199976,4.7889576 7.3320782,4.7889576 7.3320782,4.1539577 7.3320782,3.942291 H 8.5227079 L 8.4962494,3.6777085"
         id="path268"
         style="opacity:0.71;fill:#e6e6e6;stroke-width:0.264584"
         clip-path="url(#clipPath6)" />
      <path
         class="st26"
         d="m 9.9250051,3.8629168 c 0,0.4233333 -0.079375,0.9789583 -0.5820856,0.9789583 -0.079375,0 -0.1587507,0 -0.2116675,-0.026458 0,-0.15875 0,-0.4233334 0,-0.7408333 0,-0.3704167 0.052917,-0.5820834 0.079375,-0.6879167 0.1058337,-0.3175 0.2910428,-0.3175 0.3439597,-0.3175 0.3175012,0 0.3704181,0.4497917 0.3704184,0.7937497 z m -1.270005,0.5027083 c 0,0.3175 0,0.5027083 -0.052917,0.6614583 0.1852091,0.079375 0.3968766,0.1058334 0.6879194,0.1058334 0.1852091,0 0.661461,0 0.9525035,-0.555625 0.132293,-0.2645834 0.185209,-0.6085417 0.185209,-0.873125 0,-0.15875 -0.02646,-0.5027083 -0.15875,-0.7408333 -0.132292,-0.2116667 -0.3175015,-0.3175 -0.529169,-0.3175 -0.4233351,0 -0.5556273,0.3439583 -0.6085441,0.5291666 0,-0.238125 0,-1.0054166 0.052917,-1.42875 C 8.8931261,1.8785418 8.707917,1.9050001 8.522708,1.9314585 8.707917,2.0108335 8.707917,2.3018751 8.707917,3.2543751 L 8.655,4.3656251"
         id="path270"
         style="opacity:0.71;fill:#e6e6e6;stroke-width:0.264584"
         clip-path="url(#clipPath5)" />
      <path
         class="st26"
         d="m 11.247927,5.1064584 c -0.07938,0 -0.158751,-0.026458 -0.291043,-0.026458 -0.132292,0 -0.238126,0 -0.343959,0.026458 0.05292,-0.079375 0.05292,-0.1322916 0.07937,-0.4233333 0.02646,-0.396875 0.02646,-1.4552083 0,-1.666875 -0.02646,-0.15875 -0.05292,-0.1852083 -0.132292,-0.238125 0.370418,-0.026458 0.476252,-0.052917 0.635002,-0.1322916 -0.02646,0.1852083 -0.05292,0.2910416 -0.05292,0.5820833 0.02646,1.5345833 0.02646,1.6933333 0.105834,1.8785416"
         id="path272"
         style="opacity:0.71;fill:#e6e6e6;stroke-width:0.264584"
         clip-path="url(#clipPath4)" />
      <path
         class="st26"
         d="m 12.676683,3.8364585 c 0,0.2910416 0,0.47625 -0.07938,0.6349999 -0.105833,0.1852084 -0.238125,0.2645834 -0.370418,0.2645834 -0.264584,0 -0.317501,-0.2116667 -0.317501,-0.4497917 0,-0.4233333 0.370418,-0.4497916 0.529169,-0.4497916 z m -1.217088,0.5556249 c 0,0.2910417 0.07938,0.555625 0.343959,0.6879167 0.105834,0.052917 0.211668,0.052917 0.264585,0.052917 0.396876,0 0.555627,-0.2910417 0.635002,-0.5027084 0,0.1852084 0,0.3175 0,0.47625 0.07938,0 0.158751,0 0.291043,0 0.07937,0 0.158751,0 0.211668,0 -0.05292,-0.079375 -0.07938,-0.1322916 -0.07938,-0.2910416 0,-0.15875 0,-0.3439584 0,-0.5820833 V 3.3337501 c 0,-0.3439583 -0.07938,-0.6614583 -0.740836,-0.6614583 -0.449794,0 -0.687919,0.1322917 -0.820212,0.1852083 0.05292,0.1058334 0.105834,0.1852084 0.132293,0.3704167 0.185209,-0.15875 0.396876,-0.238125 0.635002,-0.238125 0.370418,0 0.370418,0.238125 0.370418,0.5820833 -0.07938,0 -0.15875,0 -0.264584,0 -0.608544,0 -0.978962,0.2116667 -0.978962,0.8202083"
         id="path274"
         style="opacity:0.71;fill:#e6e6e6;stroke-width:0.264584"
         clip-path="url(#clipPath3)" />
      <path
         class="st26"
         d="m 15.243151,4.6566668 c 0,0.15875 0,0.3175 0.05292,0.4497916 -0.105834,0 -0.15875,-0.026458 -0.343959,-0.026458 -0.105834,0 -0.158751,0 -0.238126,0.026458 0.02646,-0.052917 0.02646,-0.079375 0.02646,-0.15875 0,-0.1058333 0.02646,-0.4497916 0.02646,-0.555625 V 3.9158335 c 0,-0.2116667 0,-0.5027084 0,-0.6085417 0,-0.079375 -0.02646,-0.2910417 -0.291042,-0.2910417 -0.238126,0 -0.34396,0.1852084 -0.370419,0.3439584 -0.02646,0.15875 -0.02646,0.3175 -0.02646,0.9789583 0,0.555625 0,0.6085416 0.05292,0.7672916 -0.07938,0 -0.158751,-0.026458 -0.291043,-0.026458 -0.105834,0 -0.185209,0 -0.264584,0.026458 0.02646,-0.079375 0.05292,-0.1058333 0.05292,-0.3439583 0,-0.238125 0.02646,-1.42875 0,-1.7197916 -0.02646,-0.1852084 -0.05292,-0.2116667 -0.105834,-0.2645834 0.370418,-0.026458 0.476252,-0.079375 0.582085,-0.1322916 v 0.47625 c 0.05292,-0.1322917 0.158751,-0.4497917 0.608545,-0.4497917 0.555627,0 0.555627,0.396875 0.555627,0.6614583 l -0.02646,1.3229167"
         id="path276"
         style="opacity:0.71;fill:#e6e6e6;stroke-width:0.264584"
         clip-path="url(#clipPath2)" />
      <path
         class="st26"
         d="M 11.300844,2.0108335 10.930426,2.3812501 10.560008,2.0108335 10.930426,1.6404168 11.300844,2.0108335"
         id="path278"
         style="opacity:0.71;fill:#e6e6e6;stroke-width:0.264584"
         clip-path="url(#clipPath1)" />
    </g>
  </g>
</svg>
