<?xml version="1.0" encoding="UTF-8" standalone="no"?>
<!-- Created with Inkscape (http://www.inkscape.org/) -->

<svg
   width="1080"
   height="2160"
   viewBox="0 0 1080 2160"
   version="1.1"
   id="svg5"
   inkscape:version="1.4 (e7c3feb100, 2024-10-09)"
   sodipodi:docname="1080x2160.svg"
   xmlns:inkscape="http://www.inkscape.org/namespaces/inkscape"
   xmlns:sodipodi="http://sodipodi.sourceforge.net/DTD/sodipodi-0.dtd"
   xmlns:xlink="http://www.w3.org/1999/xlink"
   xmlns="http://www.w3.org/2000/svg"
   xmlns:svg="http://www.w3.org/2000/svg"
   xmlns:i="http://ns.adobe.com/AdobeIllustrator/10.0/">
  <sodipodi:namedview
     id="namedview7"
     pagecolor="#505050"
     bordercolor="#eeeeee"
     borderopacity="1"
     inkscape:showpageshadow="0"
     inkscape:pageopacity="0"
     inkscape:pagecheckerboard="0"
     inkscape:deskcolor="#505050"
     inkscape:document-units="px"
     showgrid="false" />
  <defs
     id="defs2">
    <linearGradient
       inkscape:collect="always"
       id="linearGradient5562">
      <stop
         style="stop-color:#27678d;stop-opacity:1;"
         offset="0.66967142"
         id="stop5558" />
      <stop
         style="stop-color:#27678d;stop-opacity:0;"
         offset="1"
         id="stop5560" />
    </linearGradient>
    <linearGradient
       inkscape:collect="always"
       id="linearGradient2549">
      <stop
         style="stop-color:#263a47;stop-opacity:0;"
         offset="0"
         id="stop2545" />
      <stop
         style="stop-color:#263a47;stop-opacity:1;"
         offset="1"
         id="stop2547" />
    </linearGradient>
    <linearGradient
       inkscape:collect="always"
       id="linearGradient2543">
      <stop
         style="stop-color:#263a47;stop-opacity:0;"
         offset="0"
         id="stop2539" />
      <stop
         style="stop-color:#263a47;stop-opacity:1;"
         offset="1"
         id="stop2541" />
    </linearGradient>
    <linearGradient
       inkscape:collect="always"
       id="linearGradient2537">
      <stop
         style="stop-color:#263a47;stop-opacity:0;"
         offset="0"
         id="stop2533" />
      <stop
         style="stop-color:#263a47;stop-opacity:1;"
         offset="1"
         id="stop2535" />
    </linearGradient>
    <linearGradient
       inkscape:collect="always"
       id="linearGradient2531">
      <stop
         style="stop-color:#263a47;stop-opacity:0;"
         offset="0"
         id="stop2527" />
      <stop
         style="stop-color:#263a47;stop-opacity:1;"
         offset="1"
         id="stop2529" />
    </linearGradient>
    <linearGradient
       inkscape:collect="always"
       id="linearGradient2525">
      <stop
         style="stop-color:#263a47;stop-opacity:0;"
         offset="0"
         id="stop2521" />
      <stop
         style="stop-color:#263a47;stop-opacity:1;"
         offset="1"
         id="stop2523" />
    </linearGradient>
    <linearGradient
       inkscape:collect="always"
       id="linearGradient2492">
      <stop
         style="stop-color:#263a47;stop-opacity:0;"
         offset="0"
         id="stop2488" />
      <stop
         style="stop-color:#263a47;stop-opacity:1;"
         offset="1"
         id="stop2490" />
    </linearGradient>
    <linearGradient
       inkscape:collect="always"
       id="linearGradient49041">
      <stop
         style="stop-color:#27678d;stop-opacity:1;"
         offset="0"
         id="stop49037" />
      <stop
         style="stop-color:#27678d;stop-opacity:0;"
         offset="1"
         id="stop49039" />
    </linearGradient>
    <linearGradient
       inkscape:collect="always"
       id="linearGradient47040">
      <stop
         style="stop-color:#263a47;stop-opacity:1;"
         offset="0"
         id="stop47036" />
      <stop
         style="stop-color:#263a47;stop-opacity:0;"
         offset="1"
         id="stop47038" />
    </linearGradient>
    <linearGradient
       inkscape:collect="always"
       id="linearGradient44914">
      <stop
         style="stop-color:#254151;stop-opacity:1;"
         offset="0"
         id="stop44910" />
      <stop
         style="stop-color:#254151;stop-opacity:0;"
         offset="1"
         id="stop44912" />
    </linearGradient>
    <linearGradient
       inkscape:collect="always"
       id="linearGradient43231">
      <stop
         style="stop-color:#264d64;stop-opacity:1;"
         offset="0"
         id="stop43227" />
      <stop
         style="stop-color:#264d64;stop-opacity:0;"
         offset="1"
         id="stop43229" />
    </linearGradient>
    <linearGradient
       inkscape:collect="always"
       id="linearGradient39723">
      <stop
         style="stop-color:#265a78;stop-opacity:1;"
         offset="0"
         id="stop39719" />
      <stop
         style="stop-color:#265a78;stop-opacity:0;"
         offset="1"
         id="stop39721" />
    </linearGradient>
    <linearGradient
       inkscape:collect="always"
       id="linearGradient39715">
      <stop
         style="stop-color:#265a78;stop-opacity:1;"
         offset="0"
         id="stop39711" />
      <stop
         style="stop-color:#265a78;stop-opacity:0;"
         offset="1"
         id="stop39713" />
    </linearGradient>
    <linearGradient
       inkscape:collect="always"
       id="linearGradient25550">
      <stop
         style="stop-color:#27678d;stop-opacity:1;"
         offset="0"
         id="stop25546" />
      <stop
         style="stop-color:#27678d;stop-opacity:0;"
         offset="1"
         id="stop25548" />
    </linearGradient>
    <linearGradient
       inkscape:collect="always"
       id="linearGradient25394">
      <stop
         style="stop-color:#266388;stop-opacity:1;"
         offset="0"
         id="stop25390" />
      <stop
         style="stop-color:#27678d;stop-opacity:0;"
         offset="1"
         id="stop25392" />
    </linearGradient>
    <linearGradient
       inkscape:collect="always"
       id="linearGradient14204">
      <stop
         style="stop-color:#265a78;stop-opacity:1;"
         offset="0.28506613"
         id="stop14200" />
      <stop
         style="stop-color:#265a78;stop-opacity:0;"
         offset="1"
         id="stop14202" />
    </linearGradient>
    <inkscape:path-effect
       effect="spiro"
       id="path-effect14198"
       is_visible="true"
       lpeversion="1" />
    <linearGradient
       inkscape:collect="always"
       id="linearGradient14190">
      <stop
         style="stop-color:#5d809c;stop-opacity:0.33499566;"
         offset="0"
         id="stop14186" />
      <stop
         style="stop-color:#5d809c;stop-opacity:0;"
         offset="1"
         id="stop14188" />
    </linearGradient>
    <inkscape:path-effect
       effect="spiro"
       id="path-effect14114"
       is_visible="true"
       lpeversion="1" />
    <linearGradient
       inkscape:collect="always"
       id="linearGradient13855">
      <stop
         style="stop-color:#27678d;stop-opacity:1;"
         offset="0.61089045"
         id="stop13851" />
      <stop
         style="stop-color:#27678d;stop-opacity:0;"
         offset="1"
         id="stop13853" />
    </linearGradient>
    <linearGradient
       inkscape:collect="always"
       id="linearGradient11650">
      <stop
         style="stop-color:#276082;stop-opacity:1;"
         offset="0"
         id="stop11646" />
      <stop
         style="stop-color:#5d809c;stop-opacity:0;"
         offset="1"
         id="stop11648" />
    </linearGradient>
    <linearGradient
       inkscape:collect="always"
       id="linearGradient9949">
      <stop
         style="stop-color:#356184;stop-opacity:0.58651036;"
         offset="0"
         id="stop9945" />
      <stop
         style="stop-color:#356184;stop-opacity:0.21960784;"
         offset="0.35032788"
         id="stop14941" />
      <stop
         style="stop-color:#356184;stop-opacity:0;"
         offset="0.74791056"
         id="stop9947" />
    </linearGradient>
    <radialGradient
       inkscape:collect="always"
       xlink:href="#linearGradient9949"
       id="radialGradient9951"
       cx="1301.2402"
       cy="622.97833"
       fx="1301.2402"
       fy="622.97833"
       r="309.37985"
       gradientTransform="matrix(1,0,0,0.60237586,-13.852259,228.12151)"
       gradientUnits="userSpaceOnUse" />
    <radialGradient
       inkscape:collect="always"
       xlink:href="#linearGradient11650"
       id="radialGradient11652"
       cx="1808.1495"
       cy="755.26746"
       fx="1808.1495"
       fy="755.26746"
       r="168.96977"
       gradientTransform="matrix(0.07643917,1.5754418,-1.7485341,0.08483695,2483.6375,-2290.7862)"
       gradientUnits="userSpaceOnUse" />
    <radialGradient
       inkscape:collect="always"
       xlink:href="#linearGradient13855"
       id="radialGradient13857"
       cx="1639.1797"
       cy="924.15015"
       fx="1639.1797"
       fy="924.15015"
       r="168.96974"
       gradientTransform="matrix(0.03133913,-1.6869846,2.1377123,0.03971193,-387.75793,3617.009)"
       gradientUnits="userSpaceOnUse" />
    <radialGradient
       inkscape:collect="always"
       xlink:href="#linearGradient14190"
       id="radialGradient14192"
       cx="1299.636"
       cy="364.37604"
       fx="1299.636"
       fy="364.37604"
       r="222.02402"
       gradientTransform="matrix(-1.7971509,0.03848755,-0.02311776,-1.0794681,3643.7015,981.18103)"
       gradientUnits="userSpaceOnUse" />
    <radialGradient
       inkscape:collect="always"
       xlink:href="#linearGradient14204"
       id="radialGradient14206"
       cx="912.32507"
       cy="1031.6346"
       fx="912.32507"
       fy="1031.6346"
       r="222.02402"
       gradientTransform="matrix(1.9999906,-0.00605216,0.00281468,0.93008354,-860.08736,-58.732031)"
       gradientUnits="userSpaceOnUse" />
    <linearGradient
       inkscape:collect="always"
       xlink:href="#linearGradient25550"
       id="linearGradient25396"
       x1="1243.4292"
       y1="1143.8857"
       x2="1332.0697"
       y2="1205.9899"
       gradientUnits="userSpaceOnUse" />
    <linearGradient
       inkscape:collect="always"
       xlink:href="#linearGradient25394"
       id="linearGradient25404"
       gradientUnits="userSpaceOnUse"
       x1="1337.4774"
       y1="1103.2778"
       x2="1265.6776"
       y2="1174.4531" />
    <linearGradient
       inkscape:collect="always"
       xlink:href="#linearGradient39715"
       id="linearGradient39717"
       x1="995.55487"
       y1="962.34827"
       x2="892.29089"
       y2="1105.22"
       gradientUnits="userSpaceOnUse" />
    <linearGradient
       inkscape:collect="always"
       xlink:href="#linearGradient39723"
       id="linearGradient39850"
       gradientUnits="userSpaceOnUse"
       x1="601.29767"
       y1="975.10193"
       x2="708.08142"
       y2="1069.0786" />
    <linearGradient
       inkscape:collect="always"
       xlink:href="#linearGradient39715"
       id="linearGradient39872"
       gradientUnits="userSpaceOnUse"
       x1="817.15717"
       y1="920.51361"
       x2="835.25867"
       y2="1024.6296" />
    <linearGradient
       inkscape:collect="always"
       xlink:href="#linearGradient43231"
       id="linearGradient43233"
       x1="1852.6553"
       y1="453.80246"
       x2="1826.9412"
       y2="517.67535"
       gradientUnits="userSpaceOnUse" />
    <linearGradient
       inkscape:collect="always"
       xlink:href="#linearGradient43231"
       id="linearGradient44480"
       gradientUnits="userSpaceOnUse"
       x1="1627.2626"
       y1="481.2999"
       x2="1707.248"
       y2="553.4679" />
    <linearGradient
       inkscape:collect="always"
       xlink:href="#linearGradient44914"
       id="linearGradient44916"
       x1="1065.1595"
       y1="439.33838"
       x2="986.61816"
       y2="559.96259"
       gradientUnits="userSpaceOnUse" />
    <linearGradient
       inkscape:collect="always"
       xlink:href="#linearGradient44914"
       id="linearGradient44921"
       gradientUnits="userSpaceOnUse"
       x1="737.51239"
       y1="405.70261"
       x2="816.51465"
       y2="523.33801" />
    <linearGradient
       inkscape:collect="always"
       xlink:href="#linearGradient47040"
       id="linearGradient47042"
       x1="1874.8914"
       y1="125.22417"
       x2="1882.5895"
       y2="362.0975"
       gradientUnits="userSpaceOnUse" />
    <linearGradient
       inkscape:collect="always"
       xlink:href="#linearGradient47040"
       id="linearGradient47047"
       gradientUnits="userSpaceOnUse"
       x1="1377.9191"
       y1="226.57504"
       x2="1432.1735"
       y2="421.54102" />
    <linearGradient
       inkscape:collect="always"
       xlink:href="#linearGradient49041"
       id="linearGradient49043"
       x1="1828.3345"
       y1="832.86841"
       x2="1802.0698"
       y2="908.56226"
       gradientUnits="userSpaceOnUse" />
    <linearGradient
       inkscape:collect="always"
       xlink:href="#linearGradient49041"
       id="linearGradient49048"
       gradientUnits="userSpaceOnUse"
       x1="1435.3868"
       y1="936.2616"
       x2="1561.6011"
       y2="1020.2629" />
    <linearGradient
       inkscape:collect="always"
       xlink:href="#linearGradient49041"
       id="linearGradient49961"
       gradientUnits="userSpaceOnUse"
       x1="1688.5034"
       y1="780.69501"
       x2="1707.3105"
       y2="877.58594" />
    <linearGradient
       inkscape:collect="always"
       xlink:href="#linearGradient2492"
       id="linearGradient2494"
       x1="1207.8154"
       y1="38.106647"
       x2="1223.2732"
       y2="57.307468"
       gradientUnits="userSpaceOnUse" />
    <linearGradient
       inkscape:collect="always"
       xlink:href="#linearGradient2549"
       id="linearGradient2503"
       gradientUnits="userSpaceOnUse"
       x1="1130.6562"
       y1="85.552734"
       x2="1142.9852"
       y2="109.48337" />
    <linearGradient
       inkscape:collect="always"
       xlink:href="#linearGradient2543"
       id="linearGradient2507"
       gradientUnits="userSpaceOnUse"
       x1="1002.2921"
       y1="136.20862"
       x2="1007.8148"
       y2="151.32722" />
    <linearGradient
       inkscape:collect="always"
       xlink:href="#linearGradient2537"
       id="linearGradient2511"
       gradientUnits="userSpaceOnUse"
       x1="703.32812"
       y1="232.91602"
       x2="709.2926"
       y2="254.24525" />
    <linearGradient
       inkscape:collect="always"
       xlink:href="#linearGradient2531"
       id="linearGradient2515"
       gradientUnits="userSpaceOnUse"
       x1="696.01276"
       y1="240.03317"
       x2="702.59961"
       y2="259.37799" />
    <linearGradient
       inkscape:collect="always"
       xlink:href="#linearGradient2525"
       id="linearGradient2519"
       gradientUnits="userSpaceOnUse"
       x1="749.80505"
       y1="210.13458"
       x2="756.85449"
       y2="249.29225" />
    <radialGradient
       inkscape:collect="always"
       xlink:href="#linearGradient5562"
       id="radialGradient5564"
       cx="1121.9491"
       cy="1367.405"
       fx="1121.9491"
       fy="1367.405"
       r="295.10715"
       gradientTransform="matrix(5.4003089e-8,-0.47219608,0.87100645,5.9725831e-7,-69.069447,1729.7793)"
       gradientUnits="userSpaceOnUse" />
  </defs>
  <g
     inkscape:groupmode="layer"
     id="layer2"
     inkscape:label="background"
     transform="matrix(1.8,0,0,1.8,-767.99995,3.2e-4)" />
  <g
     id="g5"
     transform="translate(-729.99999)">
    <path
       id="rect2585"
       style="display:inline;fill:#25343c;fill-opacity:1;fill-rule:evenodd"
       d="M 832.22219,-1.7777778e-4 V 1199.9998 H 1432.2222 V -1.7777778e-4 Z"
       transform="matrix(1.8,0,0,1.8,-767.99995,3.2e-4)" />
    <g
       id="g3383"
       inkscape:label="wave5"
       style="display:inline"
       transform="matrix(1.8,0,0,1.8,-767.99995,3.2e-4)">
      <g
         id="g2501"
         style="opacity:0.748588">
        <path
           id="path2422"
           style="display:inline;fill:url(#linearGradient2494);fill-opacity:1;stroke-width:7.281"
           inkscape:label="grad5"
           d="M 1254.6528,-1.7777778e-4 C 1217.7317,33.726673 1175.0238,62.667439 1130.6564,85.553208 1052.0816,126.08416 965.32874,147.52012 879.71677,169.59618 c -15.83312,4.08276 -31.70612,8.23924 -47.49458,12.68012 v 4.57791 c 19.58209,-5.72892 39.33676,-10.95343 59.03972,-16.03408 85.61197,-22.07608 172.36599,-43.51201 250.94079,-84.042964 44.9193,-23.170469 88.1799,-52.507301 125.4101,-86.77734377778 z" />
        <path
           id="path2496"
           style="display:inline;fill:url(#linearGradient2503);fill-opacity:1;stroke-width:7.281"
           inkscape:label="grad5"
           d="M 1254.6528,-1.7777778e-4 C 1217.7317,33.726673 1175.0238,62.667439 1130.6564,85.553208 1052.0816,126.08416 965.32874,147.52012 879.71677,169.59618 c -15.83312,4.08276 -31.70612,8.23924 -47.49458,12.68012 v 4.57791 c 19.58209,-5.72892 39.33676,-10.95343 59.03972,-16.03408 85.61197,-22.07608 172.36599,-43.51201 250.94079,-84.042964 44.9193,-23.170469 88.1799,-52.507301 125.4101,-86.77734377778 z" />
        <path
           id="path2505"
           style="display:inline;fill:url(#linearGradient2507);fill-opacity:1;stroke-width:7.281"
           inkscape:label="grad5"
           d="M 1254.6528,-1.7777778e-4 C 1217.7317,33.726673 1175.0238,62.667439 1130.6564,85.553208 1052.0816,126.08416 965.32874,147.52012 879.71677,169.59618 c -15.83312,4.08276 -31.70612,8.23924 -47.49458,12.68012 v 4.57791 c 19.58209,-5.72892 39.33676,-10.95343 59.03972,-16.03408 85.61197,-22.07608 172.36599,-43.51201 250.94079,-84.042964 44.9193,-23.170469 88.1799,-52.507301 125.4101,-86.77734377778 z" />
        <path
           id="path2509"
           style="display:inline;fill:url(#linearGradient2511);fill-opacity:1;stroke-width:7.281"
           inkscape:label="grad5"
           d="M 1254.6528,-1.7777778e-4 C 1217.7317,33.726673 1175.0238,62.667439 1130.6564,85.553208 1052.0816,126.08416 965.32874,147.52012 879.71677,169.59618 c -15.83312,4.08276 -31.70612,8.23924 -47.49458,12.68012 v 4.57791 c 19.58209,-5.72892 39.33676,-10.95343 59.03972,-16.03408 85.61197,-22.07608 172.36599,-43.51201 250.94079,-84.042964 44.9193,-23.170469 88.1799,-52.507301 125.4101,-86.77734377778 z" />
        <path
           id="path2513"
           style="display:inline;fill:url(#linearGradient2515);fill-opacity:1;stroke-width:7.281"
           inkscape:label="grad5"
           d="M 1254.6528,-1.7777778e-4 C 1217.7317,33.726673 1175.0238,62.667439 1130.6564,85.553208 1052.0816,126.08416 965.32874,147.52012 879.71677,169.59618 c -15.83312,4.08276 -31.70612,8.23924 -47.49458,12.68012 v 4.57791 c 19.58209,-5.72892 39.33676,-10.95343 59.03972,-16.03408 85.61197,-22.07608 172.36599,-43.51201 250.94079,-84.042964 44.9193,-23.170469 88.1799,-52.507301 125.4101,-86.77734377778 z" />
        <path
           id="path2517"
           style="display:inline;fill:url(#linearGradient2519);fill-opacity:1;stroke-width:7.281"
           inkscape:label="grad5"
           d="M 1254.6528,-1.7777778e-4 C 1217.7317,33.726673 1175.0238,62.667439 1130.6564,85.553208 1052.0816,126.08416 965.32874,147.52012 879.71677,169.59618 c -15.83312,4.08276 -31.70612,8.23924 -47.49458,12.68012 v 4.57791 c 19.58209,-5.72892 39.33676,-10.95343 59.03972,-16.03408 85.61197,-22.07608 172.36599,-43.51201 250.94079,-84.042964 44.9193,-23.170469 88.1799,-52.507301 125.4101,-86.77734377778 z" />
      </g>
      <path
         id="path1103"
         style="display:inline;fill:#263a47;fill-opacity:1;stroke-width:7.281"
         inkscape:label="curve5"
         d="M 1267.6139,-1.7777778e-4 C 1230.3836,34.269916 1187.1219,63.606664 1142.2027,86.777166 1063.6277,127.3082 976.87406,148.7451 891.26191,170.82122 c -19.72404,5.08608 -39.43705,10.48681 -59.03972,16.22287 V 1197.4217 H 1432.2222 V -1.7777778e-4 Z" />
      <path
         id="path3261"
         style="display:inline;fill:#263a47;fill-opacity:1;stroke-width:7.281"
         inkscape:label="tile11"
         d="M 1267.7257,-1.7777778e-4 C 1230.483,34.292028 1187.1444,63.595114 1142.2027,86.777166 1063.6279,127.30812 976.87388,148.74405 891.26191,170.82013 c -19.70296,5.08065 -39.45763,10.30516 -59.03972,16.03408 v 66.37152 c 7.32326,0.20107 14.65299,0.42246 21.96181,0.60873 72.59046,1.85004 147.3714,5.05194 213.3594,35.35699 43.0334,19.76322 80.1899,50.14586 116.263,80.82465 35.7528,30.40619 71.6276,61.86546 114.3142,81.37044 46.121,-22.01618 89.9297,-48.95302 134.1016,-75.10742 V -1.7777778e-4 Z" />
      <g
         id="g47052"
         inkscape:label="shadow11"
         style="display:inline">
        <path
           id="path46682"
           style="display:inline;fill:#25343c;fill-opacity:0.923141;stroke-width:7.281"
           inkscape:label="shadow11a"
           d="M 1267.7257,-1.7777778e-4 C 1230.483,34.292028 1187.1444,63.595114 1142.2027,86.777166 1063.6279,127.30812 976.87388,148.74405 891.26191,170.82013 c -19.70296,5.08065 -39.45763,10.30516 -59.03972,16.03408 v 66.37152 c 7.32326,0.20107 14.65299,0.42246 21.96181,0.60873 72.59046,1.85004 147.3714,5.05194 213.3594,35.35699 43.0334,19.76322 80.1899,50.14586 116.263,80.82465 35.7528,30.40619 71.6276,61.86546 114.3142,81.37044 46.121,-22.01618 89.9297,-48.95302 134.1016,-75.10742 V -1.7777778e-4 Z" />
        <path
           id="path46685"
           style="display:inline;fill:url(#linearGradient47042);fill-opacity:1;stroke-width:7.281"
           inkscape:label="shadow11b"
           d="M 1267.7257,-1.7777778e-4 C 1230.483,34.292028 1187.1444,63.595114 1142.2027,86.777166 1063.6279,127.30812 976.87388,148.74405 891.26191,170.82013 c -19.70296,5.08065 -39.45763,10.30516 -59.03972,16.03408 v 66.37152 c 7.32326,0.20107 14.65299,0.42246 21.96181,0.60873 72.59046,1.85004 147.3714,5.05194 213.3594,35.35699 43.0334,19.76322 80.1899,50.14586 116.263,80.82465 35.7528,30.40619 71.6276,61.86546 114.3142,81.37044 46.121,-22.01618 89.9297,-48.95302 134.1016,-75.10742 V -1.7777778e-4 Z" />
        <path
           id="path47044"
           style="display:inline;fill:url(#linearGradient47047);fill-opacity:1;stroke-width:7.281"
           inkscape:label="shadow11c"
           d="M 1267.7257,-1.7777778e-4 C 1230.483,34.292028 1187.1444,63.595114 1142.2027,86.777166 1063.6279,127.30812 976.87388,148.74405 891.26191,170.82013 c -19.70296,5.08065 -39.45763,10.30516 -59.03972,16.03408 v 66.37152 c 7.32326,0.20107 14.65299,0.42246 21.96181,0.60873 72.59046,1.85004 147.3714,5.05194 213.3594,35.35699 43.0334,19.76322 80.1899,50.14586 116.263,80.82465 35.7528,30.40619 71.6276,61.86546 114.3142,81.37044 46.121,-22.01618 89.9297,-48.95302 134.1016,-75.10742 V -1.7777778e-4 Z" />
      </g>
    </g>
    <g
       id="g3380"
       inkscape:label="wave4"
       style="display:inline"
       transform="matrix(1.8,0,0,1.8,-767.99995,3.2e-4)">
      <path
         id="path1211"
         style="display:inline;fill:#254151;fill-opacity:1;stroke-width:7.281"
         inkscape:label="curve4"
         d="M 832.22219,253.20729 V 1199.9998 H 1432.2222 V 482.8069 c -45.9185,-5.72494 -92.0617,-12.23322 -133.9876,-31.36394 -42.7374,-19.50101 -78.6432,-50.99319 -114.4282,-81.42686 -36.0733,-30.67887 -73.2294,-61.06031 -116.263,-80.82357 -65.988,-30.30511 -140.7688,-33.50803 -213.3594,-35.35807 -7.30808,-0.18626 -14.63914,-0.4269 -21.96181,-0.62717 z" />
      <path
         id="path3237"
         style="display:inline;fill:#254151;fill-opacity:1;stroke-width:7.281"
         inkscape:label="tile8"
         d="m 832.22219,253.22465 v 314.56163 c 54.74186,-21.09575 114.22194,-31.99567 172.50651,-41.35308 85.8105,-13.77657 172.8429,-25.80821 253.6968,-57.68121 13.4546,-5.30388 26.6525,-11.15562 39.6778,-17.37304 -42.6787,-19.50557 -78.549,-50.96085 -114.2969,-81.36285 -36.073,-30.67875 -73.2297,-61.06145 -116.263,-80.82465 -65.988,-30.30502 -140.76901,-33.50695 -213.3594,-35.35699 -7.30882,-0.18627 -14.63856,-0.40875 -21.96181,-0.60981 z" />
      <g
         id="g45353"
         inkscape:label="shadow8">
        <path
           id="path44827"
           style="display:inline;fill:#263a47;fill-opacity:0.393736;stroke-width:7.281"
           inkscape:label="shadow8a"
           d="m 832.22219,253.22465 v 314.56163 c 54.74186,-21.09575 114.22194,-31.99567 172.50651,-41.35308 85.8105,-13.77657 172.8429,-25.80821 253.6968,-57.68121 13.4546,-5.30388 26.6525,-11.15562 39.6778,-17.37304 -42.6787,-19.50557 -78.549,-50.96085 -114.2969,-81.36285 -36.073,-30.67875 -73.2297,-61.06145 -116.263,-80.82465 -65.988,-30.30502 -140.76901,-33.50695 -213.3594,-35.35699 -7.30882,-0.18627 -14.63856,-0.40875 -21.96181,-0.60981 z" />
        <path
           id="path44830"
           style="display:inline;fill:url(#linearGradient44916);fill-opacity:1;stroke-width:7.281"
           inkscape:label="shadow8b"
           d="m 832.22219,253.22465 v 314.56163 c 54.74186,-21.09575 114.22194,-31.99567 172.50651,-41.35308 85.8105,-13.77657 172.8429,-25.80821 253.6968,-57.68121 13.4546,-5.30388 26.6525,-11.15562 39.6778,-17.37304 -42.6787,-19.50557 -78.549,-50.96085 -114.2969,-81.36285 -36.073,-30.67875 -73.2297,-61.06145 -116.263,-80.82465 -65.988,-30.30502 -140.76901,-33.50695 -213.3594,-35.35699 -7.30882,-0.18627 -14.63856,-0.40875 -21.96181,-0.60981 z" />
        <path
           id="path44918"
           style="display:inline;fill:url(#linearGradient44921);fill-opacity:1;stroke-width:7.281"
           inkscape:label="shadow8c"
           d="m 832.22219,253.22465 v 314.56163 c 54.74186,-21.09575 114.22194,-31.99567 172.50651,-41.35308 85.8105,-13.77657 172.8429,-25.80821 253.6968,-57.68121 13.4546,-5.30388 26.6525,-11.15562 39.6778,-17.37304 -42.6787,-19.50557 -78.549,-50.96085 -114.2969,-81.36285 -36.073,-30.67875 -73.2297,-61.06145 -116.263,-80.82465 -65.988,-30.30502 -140.76901,-33.50695 -213.3594,-35.35699 -7.30882,-0.18627 -14.63856,-0.40875 -21.96181,-0.60981 z" />
      </g>
    </g>
    <g
       id="g3303"
       inkscape:label="wave3"
       style="display:inline"
       transform="matrix(1.8,0,0,1.8,-767.99995,3.2e-4)">
      <path
         id="path9425"
         style="display:inline;fill:#264d64;fill-opacity:1;stroke-width:7.34984"
         inkscape:label="curve3"
         d="m 1432.2222,376.35616 c -56.639,33.54222 -112.7061,68.31367 -173.7967,92.39583 -80.8541,31.87306 -167.8861,43.9046 -253.6968,57.68121 -58.31086,9.36162 -117.74443,20.42312 -172.50651,41.53754 v 632.02906 h 600.00001 z" />
      <path
         id="path3157"
         style="display:inline;fill:#264d64;fill-opacity:1;stroke-width:7.34984"
         inkscape:label="tile9"
         d="m 1432.2222,376.27695 c -44.1774,26.15346 -87.9935,53.08467 -134.1189,75.102 0.044,0.0203 0.087,0.0438 0.1313,0.064 41.9258,19.1307 88.0692,25.63911 133.9876,31.36394 z" />
      <g
         id="g50428"
         inkscape:label="shadow9">
        <path
           id="path42392"
           style="display:inline;fill:#26475b;fill-opacity:1;stroke-width:7.34984"
           inkscape:label="shadow9a"
           d="m 1432.2222,376.27695 c -44.1774,26.15346 -87.9935,53.08467 -134.1189,75.102 0.044,0.0203 0.087,0.0438 0.1313,0.064 41.9258,19.1307 88.0692,25.63911 133.9876,31.36394 z" />
        <path
           id="path43224"
           style="display:inline;fill:url(#linearGradient43233);fill-opacity:1;stroke-width:7.34984"
           inkscape:label="shadow9b"
           d="m 1432.2222,376.27695 c -44.1774,26.15346 -87.9935,53.08467 -134.1189,75.102 0.044,0.0203 0.087,0.0438 0.1313,0.064 41.9258,19.1307 88.0692,25.63911 133.9876,31.36394 z" />
        <path
           id="path44477"
           style="display:inline;fill:url(#linearGradient44480);fill-opacity:1;stroke-width:7.34984"
           inkscape:label="shadow9c"
           d="m 1432.2222,376.27695 c -44.1774,26.15346 -87.9935,53.08467 -134.1189,75.102 0.044,0.0203 0.087,0.0438 0.1313,0.064 41.9258,19.1307 88.0692,25.63911 133.9876,31.36394 z" />
      </g>
      <path
         id="path3146"
         style="display:inline;fill:#264d64;fill-opacity:1;stroke-width:7.34984"
         inkscape:label="tile6"
         d="m 1298.1206,451.38654 c -13.029,6.21945 -26.2366,12.06005 -39.6951,17.36545 -80.8537,31.87294 -167.8865,43.90468 -253.6968,57.68121 -58.28417,9.35736 -117.76482,20.25644 -172.50651,41.352 v 159.97829 c 8.32968,0.11572 16.66474,0.2259 24.96962,0.0955 44.84314,-0.70416 89.75012,-4.06975 134.48568,-0.8865 92.86591,6.60803 183.47941,42.21808 255.92011,100.69987 19.0697,15.39525 36.7033,32.28831 53.6426,49.91319 22.8239,-24.40105 42.2732,-52.05891 61.8208,-79.2806 21.0079,-29.25466 42.8005,-58.49171 69.1612,-82.82335 V 482.8069 c -45.9184,-5.72483 -92.0619,-12.23326 -133.9876,-31.36394 -0.039,-0.0176 -0.076,-0.0388 -0.114,-0.0564 z" />
      <path
         id="path7253"
         style="opacity:1;fill:url(#radialGradient9951);fill-opacity:1;stroke-width:6.62085;stop-color:#000000"
         inkscape:label="highlight6"
         d="m 1354.7613,421.54062 c -31.2441,17.58239 -63.0031,34.07145 -96.3358,47.21137 -80.4707,31.72193 -167.0587,43.7906 -252.4739,57.4859 a 309.37985,186.36295 0 0 0 -27.84073,72.34049 l -0.0445,1.2207 a 309.37985,186.36295 0 0 0 302.85702,189.91211 309.37985,186.36295 0 0 0 151.2988,-21.82074 V 438.75308 a 309.37985,186.36295 0 0 0 -77.4609,-17.21246 z" />
    </g>
    <g
       id="g3279"
       inkscape:label="wave2"
       style="display:inline"
       transform="matrix(1.8,0,0,1.8,-767.99995,3.2e-4)">
      <path
         id="path1216"
         style="display:inline;fill:#276082;fill-opacity:1;stroke-width:7.281"
         inkscape:label="curve2"
         d="m 958.09785,725.66823 c -33.60489,-0.3633 -67.27357,1.66263 -100.90604,2.19075 -8.30517,0.13042 -16.63963,0.0202 -24.96962,-0.0955 v 472.23631 h 600.00001 v -175.1107 c -1.6879,-1.749 -3.4653,-3.411 -5.1378,-5.1747 -60.3698,-63.65856 -111.2235,-136.93369 -179.4868,-192.04314 -72.4407,-58.48194 -163.0539,-94.09072 -255.92011,-100.69878 -11.18393,-0.79581 -22.37802,-1.18316 -33.57964,-1.30425 z" />
      <path
         id="path3058"
         style="display:inline;fill:#265a78;fill-opacity:0.996838;stroke-width:7.281"
         inkscape:label="tile2"
         d="m 958.09785,725.66931 c -33.6051,-0.36329 -67.27364,1.66155 -100.90604,2.18967 -8.30488,0.13041 -16.63994,0.0202 -24.96962,-0.0955 v 472.23631 h 68.40278 c 17.12715,-73.9533 134.37373,-164.6984 186.69703,-193.2964 64.3451,-35.1687 136.0283,-59.1522 191.3846,-107.24394 7.925,-6.88492 15.3841,-14.23037 22.5336,-21.87392 -16.9394,-17.6249 -34.5728,-34.51792 -53.6426,-49.91319 -72.4407,-58.48184 -163.0541,-94.09183 -255.92011,-100.69987 -11.1839,-0.79581 -22.37794,-1.18207 -33.57964,-1.30317 z m -57.47288,474.33049 h 531.59723 v -0.8398 c -177.9035,-0.3146 -357.3222,-0.425 -531.59723,0.8398 z" />
      <g
         id="g39857"
         style="display:inline"
         inkscape:label="shadow2">
        <path
           id="path39567"
           style="display:inline;fill:#264d64;fill-opacity:0.48597;stroke-width:7.281"
           inkscape:label="shadow2c"
           d="m 958.09785,725.66931 c -33.6051,-0.36329 -67.27364,1.66155 -100.90604,2.18967 -8.30488,0.13041 -16.63994,0.0202 -24.96962,-0.0955 v 472.23631 h 68.40278 c 17.12715,-73.9533 134.37373,-164.6984 186.69703,-193.2964 64.3451,-35.1687 136.0283,-59.1522 191.3846,-107.24394 7.925,-6.88492 15.3841,-14.23037 22.5336,-21.87392 -16.9394,-17.6249 -34.5728,-34.51792 -53.6426,-49.91319 -72.4407,-58.48184 -163.0541,-94.09183 -255.92011,-100.69987 -11.1839,-0.79581 -22.37794,-1.18207 -33.57964,-1.30317 z m -57.47288,474.33049 h 531.59723 v -0.8398 c -177.9035,-0.3146 -357.3222,-0.425 -531.59723,0.8398 z" />
        <path
           id="path39869"
           style="display:inline;fill:url(#linearGradient39872);fill-opacity:1;stroke-width:7.281"
           inkscape:label="shadow2d"
           d="m 958.09785,725.66931 c -33.6051,-0.36329 -67.27364,1.66155 -100.90604,2.18967 -8.30488,0.13041 -16.63994,0.0202 -24.96962,-0.0955 v 472.23631 h 68.40278 c 17.12715,-73.9533 134.37373,-164.6984 186.69703,-193.2964 64.3451,-35.1687 136.0283,-59.1522 191.3846,-107.24394 7.925,-6.88492 15.3841,-14.23037 22.5336,-21.87392 -16.9394,-17.6249 -34.5728,-34.51792 -53.6426,-49.91319 -72.4407,-58.48184 -163.0541,-94.09183 -255.92011,-100.69987 -11.1839,-0.79581 -22.37794,-1.18207 -33.57964,-1.30317 z m -57.47288,474.33049 h 531.59723 v -0.8398 c -177.9035,-0.3146 -357.3222,-0.425 -531.59723,0.8398 z" />
        <path
           id="path39569"
           style="display:inline;fill:url(#linearGradient39717);fill-opacity:1;stroke-width:7.281"
           inkscape:label="shadow2b"
           d="m 958.09785,725.66931 c -33.6051,-0.36329 -67.27364,1.66155 -100.90604,2.18967 -8.30488,0.13041 -16.63994,0.0202 -24.96962,-0.0955 v 472.23631 h 68.40278 c 17.12715,-73.9533 134.37373,-164.6984 186.69703,-193.2964 64.3451,-35.1687 136.0283,-59.1522 191.3846,-107.24394 7.925,-6.88492 15.3841,-14.23037 22.5336,-21.87392 -16.9394,-17.6249 -34.5728,-34.51792 -53.6426,-49.91319 -72.4407,-58.48184 -163.0541,-94.09183 -255.92011,-100.69987 -11.1839,-0.79581 -22.37794,-1.18207 -33.57964,-1.30317 z m -57.47288,474.33049 h 531.59723 v -0.8398 c -177.9035,-0.3146 -357.3222,-0.425 -531.59723,0.8398 z" />
        <path
           id="path39845"
           style="display:inline;fill:url(#linearGradient39850);fill-opacity:1;stroke-width:7.281"
           inkscape:label="shadow2a"
           d="m 958.09785,725.66931 c -33.60511,-0.36329 -67.27368,1.66155 -100.90604,2.18967 -8.30488,0.13041 -16.63994,0.0202 -24.96962,-0.0955 V 1027.4738 L 1121.9488,755.99375 c -41.7541,-15.8407 -85.7231,-25.85137 -130.27131,-29.02127 -11.18389,-0.79581 -22.37794,-1.18207 -33.57964,-1.30317 z" />
      </g>
      <g
         id="g14210"
         inkscape:label="highlight2">
        <path
           style="opacity:1;fill:url(#radialGradient14192);fill-opacity:1;stroke:none;stroke-width:7.281;-inkscape-stroke:none;stop-color:#000000"
           d="m 1301.2402,877.58594 c -16.6045,-17.94313 -34.5519,-34.64329 -53.6425,-49.91469 -41.4229,-33.13601 -88.3555,-59.53561 -138.5951,-76.56028 -37.8998,-12.8431 -77.4905,-20.32183 -117.32487,-24.13831 -44.70279,-4.28292 -89.84311,-3.9855 -134.48558,0.88609 21.79139,35.35696 50.19531,66.62326 83.30405,91.69895 50.07097,37.92243 110.457,61.29956 172.5503,70.76692 62.6556,9.55309 127.397,5.1708 188.1937,-12.73868 z"
           id="path14112"
           inkscape:path-effect="#path-effect14114"
           inkscape:original-d="m 1301.2402,877.58594 c -22.5954,-20.82755 -35.7607,-33.27546 -53.6425,-49.91469 -17.8818,-16.63923 -92.3957,-51.03918 -138.5951,-76.56028 -46.1994,-25.52109 -78.2156,-16.09121 -117.32487,-24.13831 -39.10928,-8.0471 -109.4844,28.20776 -134.48558,0.88609 58.60082,1.58746 56.0621,68.55858 83.30405,91.69895 27.24196,23.14038 107.485,60.91561 172.5503,70.76692 75.3158,11.40331 125.4635,-8.49145 188.1937,-12.73868 z"
           sodipodi:nodetypes="cssscssc"
           inkscape:label="highlight2_light" />
        <path
           style="display:inline;opacity:1;fill:url(#radialGradient14206);fill-opacity:1;stroke:none;stroke-width:7.281;-inkscape-stroke:none;stop-color:#000000"
           d="m 1301.2402,877.58594 c -16.6045,-17.94313 -34.5519,-34.64329 -53.6425,-49.91469 -41.4229,-33.13601 -88.3555,-59.53561 -138.5951,-76.56028 -37.8998,-12.8431 -77.4905,-20.32183 -117.32487,-24.13831 -44.70279,-4.28292 -89.84311,-3.9855 -134.48558,0.88609 21.79139,35.35696 50.19531,66.62326 83.30405,91.69895 50.07097,37.92243 110.457,61.29956 172.5503,70.76692 62.6556,9.55309 127.397,5.1708 188.1937,-12.73868 z"
           id="path14194"
           sodipodi:nodetypes="cssscssc"
           inkscape:label="highlight2_dark"
           inkscape:original-d="m 1301.2402,877.58594 c -22.5954,-20.82755 -35.7607,-33.27546 -53.6425,-49.91469 -17.8818,-16.63923 -92.3957,-51.03918 -138.5951,-76.56028 -46.1994,-25.52109 -78.2156,-16.09121 -117.32487,-24.13831 -39.10928,-8.0471 -64.16082,-4.10014 -134.48558,0.88609 33.83322,29.53303 56.0621,68.55858 83.30405,91.69895 27.24196,23.14038 107.485,60.91561 172.5503,70.76692 75.3158,11.40331 125.4635,-8.49145 188.1937,-12.73868 z"
           inkscape:path-effect="#path-effect14198" />
      </g>
    </g>
    <g
       id="g4">
      <g
         id="g3284"
         inkscape:label="wave1"
         style="display:inline"
         transform="matrix(1.8,0,0,1.8,-767.99995,3.2e-4)">
        <path
           id="path12411"
           style="display:inline;fill:#27678d;fill-opacity:1;stroke:none;stroke-width:7.281"
           inkscape:label="curve1"
           d="m 1432.2222,715.48159 c -26.3609,24.33165 -48.1533,53.5686 -69.1612,82.82335 -25.6713,35.74896 -51.1299,72.2903 -84.3544,101.15452 -55.3565,48.09182 -127.0393,72.07512 -191.3846,107.24394 -52.3233,28.598 -169.56984,119.3429 -186.69703,193.2964 172.28933,-1.2504 353.55683,-1.1665 531.59723,-0.8127 z" />
        <path
           id="path2824"
           style="display:inline;opacity:0.713047;fill:url(#radialGradient5564);fill-opacity:1;stroke:none;stroke-width:7.281"
           inkscape:label="blur3"
           d="m 1224.9881,960.37835 c -40.4992,22.15121 -97.0645,24.13357 -137.6658,46.32475 -52.3233,28.598 -233.35675,119.3436 -250.4839,193.2969 172.578,-1.2525 413.9916,-1.1554 590.2143,-0.8496 v -179.4688 c -22.9201,-24.17123 -44.5096,-49.68525 -66.1816,-75.0859 z"
           sodipodi:nodetypes="csccccc" />
        <path
           id="path2973"
           style="display:inline;fill:#27678d;fill-opacity:1;stroke:none;stroke-width:7.281"
           inkscape:label="tile4"
           d="m 1432.2222,715.48159 c -26.3608,24.33165 -48.1533,53.56865 -69.1612,82.82335 -19.5478,27.22175 -38.9969,54.87953 -61.8208,79.2806 43.6978,45.46564 82.3393,96.25407 125.8442,142.12886 1.6922,1.7845 3.4298,3.5257 5.1378,5.2952 z" />
        <g
           id="g50423"
           inkscape:label="shadow4">
          <path
             id="path48471"
             style="display:inline;fill:#265069;fill-opacity:0.301205;stroke:none;stroke-width:7.281"
             inkscape:label="shadow4a"
             d="m 1432.2222,715.48159 c -26.3608,24.33165 -48.1533,53.56865 -69.1612,82.82335 -19.5478,27.22175 -38.9969,54.87953 -61.8208,79.2806 43.6978,45.46564 82.3393,96.25407 125.8442,142.12886 1.6922,1.7845 3.4298,3.5257 5.1378,5.2952 z" />
          <path
             id="path48474"
             style="display:inline;fill:url(#linearGradient49043);fill-opacity:1;stroke:none;stroke-width:7.281"
             inkscape:label="shadow4b"
             d="m 1432.2222,715.48159 c -26.3608,24.33165 -48.1533,53.56865 -69.1612,82.82335 -19.5478,27.22175 -38.9969,54.87953 -61.8208,79.2806 43.6978,45.46564 82.3393,96.25407 125.8442,142.12886 1.6922,1.7845 3.4298,3.5257 5.1378,5.2952 z" />
          <path
             id="path49045"
             style="display:inline;fill:url(#linearGradient49048);fill-opacity:1;stroke:none;stroke-width:7.281"
             inkscape:label="shadow4c"
             d="m 1432.2222,715.48159 c -26.3608,24.33165 -48.1533,53.56865 -69.1612,82.82335 -19.5478,27.22175 -38.9969,54.87953 -61.8208,79.2806 43.6978,45.46564 82.3393,96.25407 125.8442,142.12886 1.6922,1.7845 3.4298,3.5257 5.1378,5.2952 z" />
          <path
             id="path49958"
             style="display:inline;fill:url(#linearGradient49961);fill-opacity:1;stroke:none;stroke-width:7.281"
             inkscape:label="shadow4d"
             d="m 1432.2222,715.48159 c -26.3608,24.33165 -48.1533,53.56865 -69.1612,82.82335 -19.5478,27.22175 -38.9969,54.87953 -61.8208,79.2806 43.6978,45.46564 82.3393,96.25407 125.8442,142.12886 1.6922,1.7845 3.4298,3.5257 5.1378,5.2952 z" />
        </g>
        <g
           id="g13861"
           inkscape:label="highlight4"
           style="display:inline">
          <path
             id="path11090"
             style="display:inline;opacity:1;fill:url(#radialGradient11652);fill-opacity:1;stroke:none;stroke-width:7.281;-inkscape-stroke:none;stop-color:#000000"
             inkscape:label="highlight4_light"
             d="m 1432.2222,715.43385 c -26.2068,24.44812 -47.5664,54.05856 -69.1612,82.87109 -20.0995,26.81744 -40.7118,53.2503 -61.8208,79.2806 41.9377,14.19342 87.7629,16.48004 130.982,6.95204 z" />
          <path
             id="path13845"
             style="display:inline;opacity:1;fill:url(#radialGradient13857);fill-opacity:1;stroke:none;stroke-width:7.281;-inkscape-stroke:none;stop-color:#000000"
             inkscape:label="highlight4_dark"
             d="m 1432.2222,715.48593 c -26.1721,24.47135 -47.5553,54.03202 -69.1612,82.81901 -20.1175,26.8038 -40.7294,53.23622 -61.8208,79.2806 42.3986,12.16708 87.6485,14.11661 130.982,5.92774 z" />
        </g>
        <path
           id="path2978"
           style="display:inline;fill:#27678d;fill-opacity:1;stroke:none;stroke-width:7.281"
           inkscape:label="tile3"
           d="m 1301.2402,877.58554 c -7.1495,7.64356 -14.6086,14.98899 -22.5336,21.87392 -55.3564,48.09178 -127.0394,72.07518 -191.3846,107.24394 -52.3233,28.598 -169.56986,119.343 -186.69703,193.2964 174.27523,-1.2648 353.69383,-1.1544 531.59723,-0.8398 v -174.1504 c -1.708,-1.7695 -3.4456,-3.5107 -5.1378,-5.2952 -43.5049,-45.87488 -82.1464,-96.66317 -125.8442,-142.12886 z" />
        <g
           id="g25624"
           inkscape:label="shadow3">
          <path
             id="path25388"
             style="display:inline;fill:#265a78;fill-opacity:1;stroke:none;stroke-width:7.281"
             inkscape:label="shadow3c"
             d="m 1301.2402,877.58554 c -7.1495,7.64356 -14.6086,14.98899 -22.5336,21.87392 -55.3564,48.09178 -127.0394,72.07518 -191.3846,107.24394 -52.3233,28.598 -169.56986,119.343 -186.69703,193.2964 174.27523,-1.2648 353.69383,-1.1544 531.59723,-0.8398 v -174.1504 c -1.708,-1.7695 -3.4456,-3.5107 -5.1378,-5.2952 -43.5049,-45.87488 -82.1464,-96.66317 -125.8442,-142.12886 z" />
          <path
             id="path25402"
             style="display:inline;fill:url(#linearGradient25404);fill-opacity:1;stroke:none;stroke-width:7.281"
             inkscape:label="shadow3b"
             d="m 1301.2402,877.58554 c -7.1495,7.64356 -14.6086,14.98899 -22.5336,21.87392 -55.3564,48.09178 -127.0394,72.07518 -191.3846,107.24394 -52.3233,28.598 -169.56986,119.343 -186.69703,193.2964 174.27523,-1.2648 353.69383,-1.1544 531.59723,-0.8398 v -174.1504 c -1.708,-1.7695 -3.4456,-3.5107 -5.1378,-5.2952 -43.5049,-45.87488 -82.1464,-96.66317 -125.8442,-142.12886 z" />
          <path
             id="path25406"
             style="display:inline;fill:url(#linearGradient25396);fill-opacity:1;stroke:none;stroke-width:7.281"
             inkscape:label="shadow3a"
             d="m 1301.2402,877.58554 c -7.1495,7.64356 -14.6086,14.98899 -22.5336,21.87392 -55.3564,48.09178 -127.0394,72.07518 -191.3846,107.24394 -52.3233,28.598 -169.56986,119.343 -186.69703,193.2964 174.27523,-1.2648 353.69383,-1.1544 531.59723,-0.8398 v -174.1504 c -1.708,-1.7695 -3.4456,-3.5107 -5.1378,-5.2952 -43.5049,-45.87488 -82.1464,-96.66317 -125.8442,-142.12886 z" />
        </g>
      </g>
    </g>
    <path
       id="rect47944"
       style="display:inline;fill:#27678d;fill-opacity:0.233551;fill-rule:evenodd;stroke-width:1.8"
       d="M 730,0 V 2160 H 1810 V 0 Z" />
    <g
       id="g3809"
       style="display:inline"
       transform="matrix(1.26,0,0,1.26,-45.234646,327.64437)"
       inkscape:label="little_swirl">
      <g
         id="g3807"
         style="display:inline;fill:#85a0b4;fill-opacity:1"
         transform="matrix(0.98475674,0,0,0.98475674,1229.1579,591.67491)">
        <path
           i:knockout="Off"
           fill="#85a0b4"
           d="m 51.986,57.297 c -1.797,0.025 0.34,0.926 2.686,1.287 0.648,-0.506 1.236,-1.018 1.76,-1.516 -1.461,0.358 -2.948,0.366 -4.446,0.229"
           id="path3783"
           style="fill:#85a0b4;fill-opacity:1" />
        <path
           i:knockout="Off"
           fill="#85a0b4"
           d="m 61.631,54.893 c 1.07,-1.477 1.85,-3.094 2.125,-4.766 -0.24,1.192 -0.887,2.221 -1.496,3.307 -3.359,2.115 -0.316,-1.256 -0.002,-2.537 -3.612,4.546 -0.496,2.726 -0.627,3.996"
           id="path3785"
           style="fill:#85a0b4;fill-opacity:1" />
        <path
           i:knockout="Off"
           fill="#85a0b4"
           d="m 65.191,45.629 c 0.217,-3.236 -0.637,-2.213 -0.924,-0.978 0.335,0.174 0.6,2.281 0.924,0.978"
           id="path3787"
           style="fill:#85a0b4;fill-opacity:1" />
        <path
           i:knockout="Off"
           fill="#85a0b4"
           d="m 45.172,1.399 c 0.959,0.172 2.072,0.304 1.916,0.533 1.049,-0.23 1.287,-0.442 -1.916,-0.533"
           id="path3789"
           style="fill:#85a0b4;fill-opacity:1" />
        <path
           i:knockout="Off"
           fill="#85a0b4"
           d="M 47.088,1.932 46.41,2.072 47.041,2.016 47.088,1.932"
           id="path3791"
           style="fill:#85a0b4;fill-opacity:1" />
        <path
           i:knockout="Off"
           fill="#85a0b4"
           d="m 76.992,46.856 c 0.107,2.906 -0.85,4.316 -1.713,6.812 l -1.553,0.776 c -1.271,2.468 0.123,1.567 -0.787,3.53 -1.984,1.764 -6.021,5.52 -7.313,5.863 -0.943,-0.021 0.639,-1.113 0.846,-1.541 -2.656,1.824 -2.131,2.738 -6.193,3.846 L 60.16,65.878 C 50.142,70.591 36.226,61.251 36.409,48.507 c -0.107,0.809 -0.304,0.607 -0.526,0.934 -0.517,-6.557 3.028,-13.143 9.007,-15.832 5.848,-2.895 12.704,-1.707 16.893,2.197 -2.301,-3.014 -6.881,-6.209 -12.309,-5.91 -5.317,0.084 -10.291,3.463 -11.951,7.131 -2.724,1.715 -3.04,6.611 -4.227,7.507 -1.597,11.737 3.004,16.808 10.787,22.773 1.225,0.826 0.345,0.951 0.511,1.58 -2.586,-1.211 -4.954,-3.039 -6.901,-5.277 1.033,1.512 2.148,2.982 3.589,4.137 -2.438,-0.826 -5.695,-5.908 -6.646,-6.115 4.203,7.525 17.052,13.197 23.78,10.383 -3.113,0.115 -7.068,0.064 -10.566,-1.229 -1.469,-0.756 -3.467,-2.322 -3.11,-2.615 9.182,3.43 18.667,2.598 26.612,-3.771 2.021,-1.574 4.229,-4.252 4.867,-4.289 -0.961,1.445 0.164,0.695 -0.574,1.971 2.014,-3.248 -0.875,-1.322 2.082,-5.609 l 1.092,1.504 c -0.406,-2.696 3.348,-5.97 2.967,-10.234 0.861,-1.304 0.961,1.403 0.047,4.403 1.268,-3.328 0.334,-3.863 0.66,-6.609 0.352,0.923 0.814,1.904 1.051,2.878 -0.826,-3.216 0.848,-5.416 1.262,-7.285 -0.408,-0.181 -1.275,1.422 -1.473,-2.377 0.029,-1.65 0.459,-0.865 0.625,-1.271 -0.324,-0.186 -1.174,-1.451 -1.691,-3.877 0.375,-0.57 1.002,1.478 1.512,1.562 -0.328,-1.929 -0.893,-3.4 -0.916,-4.88 -1.49,-3.114 -0.527,0.415 -1.736,-1.337 -1.586,-4.947 1.316,-1.148 1.512,-3.396 2.404,3.483 3.775,8.881 4.404,11.117 -0.48,-2.726 -1.256,-5.367 -2.203,-7.922 0.73,0.307 -1.176,-5.609 0.949,-1.691 C 83.519,18.706 76.074,10.902 69.225,7.24 70.063,8.007 71.121,8.97 70.741,9.121 67.335,7.093 67.934,6.935 67.446,6.078 64.671,4.949 64.489,6.169 62.651,6.08 57.421,3.306 56.413,3.601 51.6,1.863 l 0.219,1.023 c -3.465,-1.154 -4.037,0.438 -7.782,0.004 -0.228,-0.178 1.2,-0.644 2.375,-0.815 -3.35,0.442 -3.193,-0.66 -6.471,0.122 0.808,-0.567 1.662,-0.942 2.524,-1.424 -2.732,0.166 -6.522,1.59 -5.352,0.295 -4.456,1.988 -12.37,4.779 -16.811,8.943 l -0.14,-0.933 c -2.035,2.443 -8.874,7.296 -9.419,10.46 l -0.544,0.127 c -1.059,1.793 -1.744,3.825 -2.584,5.67 -1.385,2.36 -2.03,0.908 -1.833,1.278 -2.724,5.523 -4.077,10.164 -5.246,13.97 0.833,1.245 0.02,7.495 0.335,12.497 -1.368,24.704 17.338,48.69 37.785,54.228 2.997,1.072 7.454,1.031 11.245,1.141 -4.473,-1.279 -5.051,-0.678 -9.408,-2.197 -3.143,-1.48 -3.832,-3.17 -6.058,-5.102 l 0.881,1.557 c -4.366,-1.545 -2.539,-1.912 -6.091,-3.037 l 0.941,-1.229 C 28.751,98.334 26.418,96.056 25.78,94.795 l -1.548,0.061 c -1.86,-2.295 -2.851,-3.949 -2.779,-5.23 l -0.5,0.891 c -0.567,-0.973 -6.843,-8.607 -3.587,-6.83 -0.605,-0.553 -1.409,-0.9 -2.281,-2.484 l 0.663,-0.758 c -1.567,-2.016 -2.884,-4.6 -2.784,-5.461 0.836,1.129 1.416,1.34 1.99,1.533 -3.957,-9.818 -4.179,-0.541 -7.176,-9.994 L 8.412,66.472 C 7.926,65.74 7.631,64.945 7.24,64.165 l 0.276,-2.75 C 4.667,58.121 6.719,47.409 7.13,41.534 7.415,39.145 9.508,36.602 11.1,32.614 l -0.97,-0.167 c 1.854,-3.234 10.586,-12.988 14.63,-12.486 1.959,-2.461 -0.389,-0.009 -0.772,-0.629 4.303,-4.453 5.656,-3.146 8.56,-3.947 3.132,-1.859 -2.688,0.725 -1.203,-0.709 5.414,-1.383 3.837,-3.144 10.9,-3.846 0.745,0.424 -1.729,0.655 -2.35,1.205 4.511,-2.207 14.275,-1.705 20.617,1.225 7.359,3.439 15.627,13.605 15.953,23.17 l 0.371,0.1 c -0.188,3.802 0.582,8.199 -0.752,12.238 l 0.908,-1.912"
           id="path3793"
           style="fill:#85a0b4;fill-opacity:1" />
        <path
           i:knockout="Off"
           fill="#85a0b4"
           d="m 32.372,59.764 -0.252,1.26 c 1.181,1.604 2.118,3.342 3.626,4.596 -1.085,-2.118 -1.891,-2.993 -3.374,-5.856"
           id="path3795"
           style="fill:#85a0b4;fill-opacity:1" />
        <path
           i:knockout="Off"
           fill="#85a0b4"
           d="m 35.164,59.654 c -0.625,-0.691 -0.995,-1.523 -1.409,-2.352 0.396,1.457 1.207,2.709 1.962,3.982 l -0.553,-1.63"
           id="path3797"
           style="fill:#85a0b4;fill-opacity:1" />
        <path
           i:knockout="Off"
           fill="#85a0b4"
           d="m 84.568,48.916 -0.264,0.662 c -0.484,3.438 -1.529,6.84 -3.131,9.994 1.77,-3.328 2.915,-6.968 3.395,-10.656"
           id="path3799"
           style="fill:#85a0b4;fill-opacity:1" />
        <path
           i:knockout="Off"
           fill="#85a0b4"
           d="M 45.527,0.537 C 46.742,0.092 48.514,0.293 49.803,0 48.123,0.141 46.451,0.225 44.8,0.438 l 0.727,0.099"
           id="path3801"
           style="fill:#85a0b4;fill-opacity:1" />
        <path
           i:knockout="Off"
           fill="#85a0b4"
           d="m 2.872,23.219 c 0.28,2.592 -1.95,3.598 0.494,1.889 1.31,-2.951 -0.512,-0.815 -0.494,-1.889"
           id="path3803"
           style="fill:#85a0b4;fill-opacity:1" />
        <path
           i:knockout="Off"
           fill="#85a0b4"
           d="M 0,35.215 C 0.563,33.487 0.665,32.449 0.88,31.449 -0.676,33.438 0.164,33.862 0,35.215"
           id="path3805"
           style="fill:#85a0b4;fill-opacity:1" />
      </g>
    </g>
  </g>
</svg>
